<svg width="60" height="60" viewBox="0 0 60 60" fill="none" xmlns="http://www.w3.org/2000/svg">
<path fill-rule="evenodd" clip-rule="evenodd" d="M60 16.0005V55.0005C60 57.7575 57.757 60.0005 55 60.0005H5C2.243 60.0005 0 57.7575 0 55.0005V16.0005C0 15.4485 0.448 15.0005 1 15.0005C1.552 15.0005 2 15.4485 2 16.0005V55.0005C2 56.6545 3.346 58.0005 5 58.0005H29V55.6495C27.78 55.1385 24.656 54.0005 21 54.0005C12.3311 54.0005 5.4587 55.9101 5.27716 55.9606L5.274 55.9615C5.184 55.9875 5.092 56.0005 5 56.0005C4.785 56.0005 4.573 55.9315 4.397 55.7985C4.148 55.6095 4 55.3135 4 55.0005V11.0005C4 10.5545 4.296 10.1615 4.725 10.0395C5.017 9.95547 11.964 8.00047 21 8.00047C26.177 8.00047 30.275 10.0205 30.447 10.1055C30.786 10.2755 31 10.6215 31 11.0005V49.2635C34.047 47.5295 41.174 43.6565 48 41.2845V2.46247C40.647 5.41947 33.604 9.80147 33.53 9.84847C33.061 10.1415 32.444 9.99847 32.152 9.53047C31.859 9.06247 32.002 8.44547 32.47 8.15247L32.4749 8.14942C32.715 8.00061 40.728 3.03407 48.648 0.0634685C48.957 -0.0515315 49.301 -0.00853147 49.569 0.178469C49.839 0.365469 50 0.672468 50 1.00047V42.0005C50 42.4315 49.725 42.8125 49.316 42.9495C40.5586 45.8683 30.6963 51.7493 30.5167 51.8564L30.5167 51.8564L30.515 51.8575C30.206 52.0435 29.82 52.0485 29.507 51.8705C29.194 51.6935 29 51.3605 29 51.0005V11.6485C27.773 11.1355 24.646 10.0005 21 10.0005C13.895 10.0005 7.997 11.2835 6 11.7745V53.7135C8.438 53.1365 14.112 52.0005 21 52.0005C25.304 52.0005 28.862 53.3965 30.039 53.9165C31.363 53.4315 35.643 52.0005 40 52.0005C46.702 52.0005 51.734 53.0775 54 53.6715V11.8135C53.67 11.7475 53.242 11.6645 52.731 11.5705C52.188 11.4705 51.829 10.9495 51.929 10.4055C52.029 9.86347 52.552 9.50347 53.093 9.60347C54.433 9.84947 55.217 10.0245 55.217 10.0245C55.675 10.1255 56 10.5315 56 11.0005V55.0005C56 55.3215 55.846 55.6235 55.585 55.8115C55.322 55.9995 54.986 56.0495 54.685 55.9495C54.626 55.9295 48.711 54.0005 40 54.0005C36.256 54.0005 32.458 55.1895 31 55.6995V58.0005H55C56.654 58.0005 58 56.6545 58 55.0005V16.0005C58 15.4485 58.447 15.0005 59 15.0005C59.553 15.0005 60 15.4485 60 16.0005ZM24.228 18.5585C18.053 17.1095 11.036 18.9555 10.741 19.0345C10.208 19.1775 9.891 19.7255 10.034 20.2595C10.154 20.7065 10.558 21.0005 10.999 21.0005C11.085 21.0005 11.172 20.9895 11.259 20.9665C11.326 20.9475 18.082 19.1705 23.772 20.5055C24.307 20.6305 24.848 20.2975 24.974 19.7595C25.1 19.2225 24.766 18.6845 24.228 18.5585ZM10.741 25.0345C11.036 24.9555 18.053 23.1105 24.228 24.5585C24.766 24.6845 25.1 25.2225 24.974 25.7595C24.848 26.2975 24.307 26.6305 23.772 26.5055C18.082 25.1705 11.326 26.9475 11.259 26.9665C11.172 26.9895 11.085 27.0005 10.999 27.0005C10.558 27.0005 10.154 26.7065 10.034 26.2595C9.891 25.7255 10.208 25.1775 10.741 25.0345ZM24.228 30.5585C18.053 29.1105 11.036 30.9545 10.741 31.0345C10.208 31.1775 9.891 31.7255 10.034 32.2595C10.154 32.7065 10.558 33.0015 10.999 33.0015C11.085 33.0015 11.172 32.9895 11.259 32.9665C11.326 32.9475 18.082 31.1705 23.772 32.5055C24.307 32.6305 24.848 32.2975 24.974 31.7595C25.1 31.2225 24.766 30.6845 24.228 30.5585ZM10.741 37.0345C11.036 36.9545 18.053 35.1095 24.228 36.5585C24.766 36.6845 25.1 37.2225 24.974 37.7595C24.848 38.2975 24.307 38.6305 23.772 38.5055C18.082 37.1705 11.326 38.9475 11.259 38.9665C11.172 38.9895 11.085 39.0015 10.999 39.0015C10.558 39.0015 10.154 38.7065 10.034 38.2595C9.891 37.7255 10.208 37.1775 10.741 37.0345ZM24.228 42.5585C18.053 41.1095 11.036 42.9555 10.741 43.0345C10.208 43.1775 9.891 43.7255 10.034 44.2595C10.154 44.7065 10.558 45.0015 10.999 45.0015C11.085 45.0015 11.172 44.9895 11.259 44.9665C11.326 44.9475 18.082 43.1705 23.772 44.5055C24.307 44.6295 24.848 44.2975 24.974 43.7595C25.1 43.2225 24.766 42.6845 24.228 42.5585ZM35.001 41.0005C34.637 41.0005 34.285 40.8005 34.108 40.4545C33.858 39.9615 34.054 39.3595 34.546 39.1095C34.794 38.9835 40.64 36.0135 43.698 35.0465C44.229 34.8805 44.787 35.1735 44.953 35.6995C45.12 36.2255 44.828 36.7875 44.302 36.9545C41.399 37.8715 35.513 40.8615 35.454 40.8915C35.309 40.9655 35.153 41.0005 35.001 41.0005ZM34.108 34.4545C34.285 34.8005 34.637 35.0005 35.001 35.0005C35.153 35.0005 35.309 34.9655 35.454 34.8915C35.513 34.8615 41.399 31.8715 44.302 30.9545C44.828 30.7875 45.12 30.2255 44.953 29.6995C44.787 29.1735 44.229 28.8805 43.698 29.0465C40.64 30.0135 34.794 32.9835 34.546 33.1095C34.054 33.3595 33.858 33.9615 34.108 34.4545ZM35.001 29.0005C34.637 29.0005 34.285 28.8005 34.108 28.4545C33.858 27.9615 34.054 27.3595 34.546 27.1095C34.794 26.9835 40.64 24.0135 43.698 23.0465C44.229 22.8805 44.787 23.1735 44.953 23.6995C45.12 24.2255 44.828 24.7875 44.302 24.9545C41.399 25.8715 35.513 28.8615 35.454 28.8915C35.309 28.9655 35.153 29.0005 35.001 29.0005ZM34.108 22.4545C34.285 22.8005 34.637 23.0005 35.001 23.0005C35.153 23.0005 35.309 22.9655 35.454 22.8915C35.513 22.8615 41.399 19.8715 44.302 18.9545C44.828 18.7875 45.12 18.2255 44.953 17.6995C44.787 17.1735 44.229 16.8805 43.698 17.0465C40.64 18.0135 34.794 20.9835 34.546 21.1095C34.054 21.3595 33.858 21.9615 34.108 22.4545ZM35.454 16.8915C35.309 16.9655 35.153 17.0005 35.001 17.0005C34.637 17.0005 34.285 16.8005 34.108 16.4545C33.858 15.9615 34.054 15.3595 34.546 15.1095C34.794 14.9835 40.64 12.0135 43.698 11.0465C44.229 10.8805 44.787 11.1735 44.953 11.6995C45.12 12.2255 44.828 12.7875 44.302 12.9545C41.399 13.8715 35.513 16.8615 35.454 16.8915Z" fill="white"/>
</svg>
