<svg width="61" height="48" viewBox="0 0 61 48" fill="none" xmlns="http://www.w3.org/2000/svg">
<path fill-rule="evenodd" clip-rule="evenodd" d="M20.3064 15.396C20.7924 15.659 21.3984 15.477 21.6614 14.991L27.9054 3.425C27.9334 3.367 28.6054 2 30.0004 2C31.3954 2 32.0674 3.367 32.1224 3.479L49.0324 34.482C49.2144 34.815 49.5574 35.003 49.9114 35.003C50.0734 35.003 50.2374 34.964 50.3894 34.881C50.8744 34.616 51.0534 34.009 50.7884 33.524L46.2234 25.156C46.4694 25.054 46.7294 25 47.0004 25C48.3954 25 49.0674 26.367 49.1164 26.467L58.1164 43.468C58.2964 43.807 58.6424 44 59.0014 44C59.1594 44 59.3194 43.963 59.4684 43.884C59.9564 43.625 60.1424 43.02 59.8844 42.532L50.9084 25.581C50.8594 25.476 49.6874 23 47.0004 23C46.3914 23 45.8114 23.149 45.2694 23.407L33.9084 2.581C33.8594 2.476 32.6874 0 30.0004 0C27.3124 0 26.1414 2.476 26.1204 2.525L19.9014 14.041C19.6394 14.526 19.8204 15.133 20.3064 15.396ZM0.121402 42.524L13.1214 18.524C13.1414 18.476 14.3134 16 17.0004 16C18.0954 16 18.9764 16.702 19.5024 17.122L19.6184 17.214L22.9064 19.68L28.2934 14.293C28.6844 13.902 29.3164 13.902 29.7074 14.293L33.0004 17.586L35.2934 15.293C35.6844 14.902 36.3164 14.902 36.7074 15.293C37.0984 15.684 37.0984 16.316 36.7074 16.707L33.7074 19.707C33.3164 20.098 32.6844 20.098 32.2934 19.707L29.0004 16.414L23.7074 21.707C23.3554 22.059 22.7984 22.1 22.4004 21.8L19.2594 19.44L10.8744 34.487C10.6904 34.815 10.3504 35 9.9994 35C9.8344 35 9.6674 34.959 9.5134 34.874C9.0314 34.605 8.8574 33.996 9.1264 33.513L17.6414 18.235C17.4214 18.1 17.1984 18 17.0004 18C15.6054 18 14.9334 19.367 14.9054 19.425L1.8794 43.476C1.6984 43.811 1.3544 44 0.999402 44C0.838402 44 0.675402 43.961 0.524402 43.879C0.0384017 43.616 -0.142598 43.009 0.121402 42.524ZM1.0004 46H13.0004C13.5524 46 14.0004 46.448 14.0004 47C14.0004 47.552 13.5524 48 13.0004 48H1.0004C0.448402 48 0.000401751 47.552 0.000401751 47C0.000401751 46.448 0.448402 46 1.0004 46ZM54.0004 47C54.0004 47.552 53.5524 48 53.0004 48H17.0004C16.4484 48 16.0004 47.552 16.0004 47V44H14.0004C13.6724 44 13.3654 43.839 13.1784 43.57C12.9914 43.3 12.9494 42.956 13.0644 42.649L16.0634 34.649C16.2104 34.259 16.5834 34 17.0004 34C17.4174 34 17.7904 34.259 17.9374 34.649L20.8714 42.475C20.9654 42.627 21.0204 42.807 21.0204 43C21.0204 43.552 20.5724 44 20.0204 44H20.0004H18.0004V46H34.0004V44H32.0004C31.6724 44 31.3654 43.839 31.1784 43.57C30.9914 43.3 30.9494 42.956 31.0634 42.649L34.0634 34.649C34.2094 34.261 34.5794 34.002 34.9944 34H35.0004C35.4124 34 35.7824 34.253 35.9324 34.638L37.0994 37.638C37.2994 38.152 37.0444 38.732 36.5294 38.932C36.0154 39.131 35.4364 38.877 35.2354 38.362L35.0174 37.802L33.4434 42H35.0004C35.5524 42 36.0004 42.448 36.0004 43V46H40.0004V44H38.0004C37.6724 44 37.3654 43.839 37.1784 43.57C36.9914 43.3 36.9494 42.956 37.0634 42.649L40.0634 34.649C40.2104 34.259 40.5834 34 41.0004 34C41.4174 34 41.7904 34.259 41.9374 34.649L44.8714 42.475C44.9654 42.627 45.0204 42.807 45.0204 43C45.0204 43.552 44.5724 44 44.0204 44H44.0004H42.0004V46H53.0004C53.5524 46 54.0004 46.448 54.0004 47ZM41.0004 37.848L42.5574 42H39.4434L41.0004 37.848ZM15.4434 42H18.5574L17.0004 37.848L15.4434 42ZM57.0004 46H59.0004C59.5524 46 60.0004 46.448 60.0004 47C60.0004 47.552 59.5524 48 59.0004 48H57.0004C56.4484 48 56.0004 47.552 56.0004 47C56.0004 46.448 56.4484 46 57.0004 46Z" fill="white"/>
</svg>
