<svg width="52" height="60" viewBox="0 0 52 60" fill="none" xmlns="http://www.w3.org/2000/svg">
<path fill-rule="evenodd" clip-rule="evenodd" d="M52 55V15C52 14.448 51.553 14 51 14H41C39.346 14 38 12.654 38 11V6C38 5.448 37.553 5 37 5C36.447 5 36 5.448 36 6V11C36 13.757 38.243 16 41 16H50V55C50 56.682 48.683 58 47 58H5C3.346 58 2 56.654 2 55V5C2 3.346 3.346 2 5 2C5.552 2 6 1.552 6 1C6 0.448 5.552 0 5 0C2.243 0 0 2.243 0 5V55C0 57.757 2.243 60 5 60H47C49.804 60 52 57.804 52 55ZM8 1V6.726C6.759 8.136 6 9.979 6 12C6 13.807 6.609 15.47 7.623 16.811C6.893 17.526 6 18.839 6 21C6 23.161 6.893 24.474 7.623 25.189C6.609 26.53 6 28.193 6 30C6 32.021 6.759 33.864 8 35.274V39C8 39.552 8.448 40 9 40C9.552 40 10 39.552 10 39V36.917C11.178 37.602 12.542 38 14 38C18.411 38 22 34.411 22 30C22 25.589 18.411 22 14 22C12.114 22 10.381 22.66 9.012 23.756C8.582 23.331 8 22.485 8 21C8 19.514 8.582 18.669 9.012 18.244C10.381 19.34 12.114 20 14 20C18.411 20 22 16.411 22 12C22 7.589 18.411 4 14 4C12.542 4 11.178 4.398 10 5.082V2H36.586L46.293 11.707C46.488 11.902 46.744 12 47 12C47.256 12 47.512 11.902 47.707 11.707C48.098 11.316 48.098 10.684 47.707 10.293L37.707 0.293C37.52 0.105 37.266 0 37 0H9C8.448 0 8 0.448 8 1ZM14 24C10.691 24 8 26.691 8 30C8 33.309 10.691 36 14 36C17.309 36 20 33.309 20 30C20 26.691 17.309 24 14 24ZM8 12C8 8.691 10.691 6 14 6C17.309 6 20 8.691 20 12C20 15.309 17.309 18 14 18C10.691 18 8 15.309 8 12ZM14.905 10.215C15.303 10.417 15.625 10.751 15.814 11.155C15.983 11.519 16.344 11.732 16.72 11.732C16.862 11.732 17.006 11.702 17.143 11.638C17.643 11.404 17.859 10.809 17.626 10.309C17.25 9.503 16.606 8.837 15.814 8.433C15.322 8.185 14.719 8.378 14.468 8.87C14.218 9.362 14.413 9.964 14.905 10.215ZM15.814 29.127C15.625 28.724 15.303 28.39 14.905 28.187C14.413 27.936 14.218 27.334 14.468 26.842C14.719 26.35 15.322 26.155 15.814 26.405C16.606 26.81 17.25 27.476 17.626 28.281C17.859 28.781 17.643 29.376 17.143 29.61C17.006 29.674 16.862 29.704 16.72 29.704C16.344 29.704 15.983 29.491 15.814 29.127ZM29 24H25C24.448 24 24 24.448 24 25C24 25.552 24.448 26 25 26H29C29.553 26 30 25.552 30 25C30 24.448 29.553 24 29 24ZM32 25C32 24.448 32.447 24 33 24H41C41.553 24 42 24.448 42 25C42 25.552 41.553 26 41 26H33C32.447 26 32 25.552 32 25ZM25 31C25 31.552 25.448 32 26 32H31C31.553 32 32 31.552 32 31C32 30.448 31.553 30 31 30H26C25.448 30 25 30.448 25 31ZM40 31C40 31.552 39.553 32 39 32H35C34.447 32 34 31.552 34 31C34 30.448 34.447 30 35 30H39C39.553 30 40 30.448 40 31ZM17 44C17.552 44 18 43.552 18 43C18 42.448 17.552 42 17 42H11C10.448 42 10 42.448 10 43C10 43.552 10.448 44 11 44H17ZM41 42C41.553 42 42 42.448 42 43C42 43.552 41.553 44 41 44H35C34.447 44 34 43.552 34 43C34 42.448 34.447 42 35 42H41ZM32 43C32 42.448 31.553 42 31 42H21C20.448 42 20 42.448 20 43C20 43.552 20.448 44 21 44H31C31.553 44 32 43.552 32 43ZM24 38C23.448 38 23 37.552 23 37C23 36.448 23.448 36 24 36H39C39.553 36 40 36.448 40 37C40 37.552 39.553 38 39 38H24ZM23 50C23.552 50 24 49.552 24 49C24 48.448 23.552 48 23 48H11C10.448 48 10 48.448 10 49C10 49.552 10.448 50 11 50H23ZM38 49C38 49.552 37.553 50 37 50H27C26.448 50 26 49.552 26 49C26 48.448 26.448 48 27 48H37C37.553 48 38 48.448 38 49Z" fill="white"/>
</svg>
