<svg width="53" height="50" viewBox="0 0 53 50" fill="none" xmlns="http://www.w3.org/2000/svg">
<path fill-rule="evenodd" clip-rule="evenodd" d="M23.6346 8.27273C23.6346 12.8818 21.0346 16.5455 17.7255 16.5455C14.4164 16.5455 11.8164 12.8818 11.8164 8.27273C11.8164 3.66364 14.4164 0 17.7255 0C21.0346 0 23.6346 3.66364 23.6346 8.27273ZM21.271 8.27273C21.271 5.08182 19.6164 2.36364 17.7255 2.36364C15.8346 2.36364 14.18 5.08182 14.18 8.27273C14.18 11.4636 15.8346 14.1818 17.7255 14.1818C19.6164 14.1818 21.271 11.4636 21.271 8.27273Z" fill="white"/>
<path fill-rule="evenodd" clip-rule="evenodd" d="M40.1815 8.27273C40.1815 12.8818 37.5815 16.5455 34.2724 16.5455C30.9633 16.5455 28.3633 12.8818 28.3633 8.27273C28.3633 3.66364 30.9633 0 34.2724 0C37.5815 0 40.1815 3.66364 40.1815 8.27273ZM37.8178 8.27273C37.8178 5.08182 36.1633 2.36364 34.2724 2.36364C32.3815 2.36364 30.7269 5.08182 30.7269 8.27273C30.7269 11.4636 32.3815 14.1818 34.2724 14.1818C36.1633 14.1818 37.8178 11.4636 37.8178 8.27273Z" fill="white"/>
<path fill-rule="evenodd" clip-rule="evenodd" d="M40.1836 23.6364C40.1836 19.0273 42.7836 15.3636 46.0927 15.3636C49.4018 15.3636 52.0018 19.0273 52.0018 23.6364C52.0018 28.2455 49.4018 31.9091 46.0927 31.9091C42.7836 31.9091 40.1836 28.2455 40.1836 23.6364ZM42.5472 23.6364C42.5472 26.8273 44.2018 29.5455 46.0927 29.5455C47.9836 29.5455 49.6381 26.8273 49.6381 23.6364C49.6381 20.4455 47.9836 17.7273 46.0927 17.7273C44.2018 17.7273 42.5472 20.4455 42.5472 23.6364Z" fill="white"/>
<path fill-rule="evenodd" clip-rule="evenodd" d="M5.90909 15.3636C9.21818 15.3636 11.8182 19.0273 11.8182 23.6364C11.8182 28.2455 9.21818 31.9091 5.90909 31.9091C2.6 31.9091 0 28.2455 0 23.6364C0 19.0273 2.6 15.3636 5.90909 15.3636ZM2.36364 23.6364C2.36364 26.8273 4.01818 29.5455 5.90909 29.5455C7.8 29.5455 9.45455 26.8273 9.45455 23.6364C9.45455 20.4455 7.8 17.7273 5.90909 17.7273C4.01818 17.7273 2.36364 20.4455 2.36364 23.6364Z" fill="white"/>
<path d="M40.0626 32.9727L37.8171 31.9091C36.2808 31.2 35.0989 29.6636 34.6262 27.8909L33.9171 25.2909C32.8535 21.5091 29.5444 18.9091 25.9989 18.9091C22.4535 18.9091 19.1444 21.5091 18.1989 25.2909L17.4898 27.8909C17.0171 29.6636 15.8353 31.2 14.2989 31.9091L12.0535 32.9727C8.98075 34.3909 7.08984 37.5818 7.08984 41.0091C7.08984 43.7272 8.27166 46.2091 10.1626 47.7454C11.9353 49.1636 14.0626 49.7545 16.308 49.4L19.7353 48.8091C20.5626 48.6909 21.508 48.3363 22.3353 47.9818C22.9262 47.7454 23.1626 47.0363 22.9262 46.4454C22.6898 45.8545 21.9808 45.6181 21.3898 45.8545C20.7989 46.0909 20.0898 46.3272 19.3808 46.4454L15.9535 47.0363C14.4171 47.2727 12.9989 46.9181 11.6989 45.8545C10.2808 44.9091 9.45348 43.0181 9.45348 41.0091C9.45348 38.4091 10.8717 36.0454 12.9989 35.1L15.2444 34.0363C17.3717 32.9727 19.0262 30.9636 19.7353 28.4818L20.4444 25.8818C21.1535 23.1636 23.3989 21.2727 25.9989 21.2727C28.5989 21.2727 30.8444 23.1636 31.5535 25.8818L32.2626 28.4818C32.9717 30.9636 34.6262 32.9727 36.7535 34.0363L38.9989 35.1C41.1262 36.1636 42.5444 38.5272 42.5444 41.0091C42.5444 43.0181 41.7171 44.7909 40.2989 45.9727C39.1171 47.0363 37.5808 47.3909 36.0444 47.1545L32.6171 46.5636C31.908 46.4454 31.1989 46.2091 30.608 45.9727C30.0171 45.7363 29.308 45.9727 29.0717 46.5636C28.8353 47.1545 29.0717 47.8636 29.6626 48.1C30.4898 48.4545 31.3171 48.6909 32.2626 48.9272L35.6898 49.5181C36.1626 49.6363 36.6353 49.6363 36.9898 49.6363C38.7626 49.6363 40.4171 49.0454 41.8353 47.8636C43.7262 46.2091 44.908 43.7272 44.908 41.0091C44.908 37.5818 43.0171 34.3909 40.0626 32.9727Z" fill="white"/>
</svg>
