<svg width="378" height="944" viewBox="0 0 378 944" fill="none" xmlns="http://www.w3.org/2000/svg">
<g opacity="0.6">
<mask id="mask0" mask-type="alpha" maskUnits="userSpaceOnUse" x="181" y="0" width="42" height="28">
<path fill-rule="evenodd" clip-rule="evenodd" d="M181.459 0.700928L181.459 27.1344L222.425 27.1344L222.425 0.70093L181.459 0.700928Z" fill="white"/>
</mask>
<g mask="url(#mask0)">
<path fill-rule="evenodd" clip-rule="evenodd" d="M194.531 25.0293C192.66 23.3923 191.59 21.1493 190.38 19.0103C189.524 17.4983 188.599 16.0393 187.271 14.8843C184.46 12.4403 180.481 10.8433 181.677 6.27433C182.933 1.47633 188.481 0.635334 192.677 0.704334C196.448 0.766334 199.916 2.82233 203.612 3.49433C206.993 4.10833 210.602 3.59033 213.812 4.83233C216.895 6.02634 221.182 7.95734 222.204 11.4613C223.557 16.1003 218.377 18.4083 214.927 19.6553C211.979 20.7213 209.352 22.4683 206.927 24.4313C203.232 27.4213 198.337 28.3583 194.531 25.0293Z" fill="#DEECE4"/>
</g>
<path fill-rule="evenodd" clip-rule="evenodd" d="M193.7 41.6055C191.98 46.2175 187.794 48.9155 184.349 47.6315C180.904 46.3475 179.504 41.5665 181.223 36.9555C182.943 32.3425 187.13 29.6455 190.575 30.9295C194.019 32.2135 195.419 36.9935 193.7 41.6055Z" fill="#DEECE4"/>
<path fill-rule="evenodd" clip-rule="evenodd" d="M205.55 33.5805C209.227 33.5575 212.233 37.5285 212.264 42.4505C212.295 47.3725 209.34 51.3815 205.663 51.4045C201.987 51.4285 198.981 47.4565 198.949 42.5355C198.918 37.6125 201.873 33.6035 205.55 33.5805Z" fill="#DEECE4"/>
<path fill-rule="evenodd" clip-rule="evenodd" d="M180.088 25.1631C177.924 28.4581 174.175 29.8201 171.713 28.2041C169.252 26.5871 169.01 22.6061 171.174 19.3111C173.338 16.0161 177.087 14.6541 179.548 16.2701C182.009 17.8871 182.251 21.8681 180.088 25.1631Z" fill="#DEECE4"/>
<path fill-rule="evenodd" clip-rule="evenodd" d="M224.203 37.4957C221.336 38.1687 218.282 35.6027 217.381 31.7657C216.48 27.9277 218.074 24.2707 220.941 23.5987C223.807 22.9257 226.861 25.4917 227.763 29.3287C228.663 33.1667 227.069 36.8237 224.203 37.4957Z" fill="#DEECE4"/>
<path fill-rule="evenodd" clip-rule="evenodd" d="M348.017 71.4752C348.04 68.8892 347.444 66.3561 346.622 63.9172C345.371 60.2012 346.054 56.1472 349.721 54.1612C351.525 53.1832 353.567 53.0002 355.568 52.6792C356.983 52.4522 358.377 52.1562 359.651 51.4612C362.349 49.9902 364.727 47.3712 367.916 49.6092C371.265 51.9582 370.321 56.4902 369.063 59.7152C367.932 62.6122 365.345 64.7032 363.764 67.3682C362.318 69.8062 361.682 72.7462 359.799 74.8712C357.991 76.9122 355.266 79.6722 352.262 79.4552C348.288 79.1692 347.991 74.5002 348.017 71.4752Z" fill="#DEECE4"/>
<path fill-rule="evenodd" clip-rule="evenodd" d="M337.143 48.7554C334.071 46.1014 333.187 42.0884 335.17 39.7944C337.153 37.4984 341.25 37.7904 344.323 40.4444C347.396 43.0984 348.279 47.1104 346.296 49.4054C344.313 51.7004 340.215 51.4094 337.143 48.7554Z" fill="#DEECE4"/>
<path fill-rule="evenodd" clip-rule="evenodd" d="M339.942 60.2241C338.904 63.0741 334.97 64.2571 331.155 62.8671C327.34 61.4771 325.089 58.0411 326.128 55.1911C327.166 52.3421 331.099 51.1581 334.915 52.5481C338.729 53.9371 340.98 57.3741 339.942 60.2241Z" fill="#DEECE4"/>
<path fill-rule="evenodd" clip-rule="evenodd" d="M353.766 42.9531C351.84 40.3331 351.865 37.0431 353.821 35.6041C355.778 34.1651 358.926 35.1221 360.852 37.7421C362.779 40.3611 362.754 43.6511 360.797 45.0901C358.84 46.5291 355.693 45.5721 353.766 42.9531Z" fill="#DEECE4"/>
<path fill-rule="evenodd" clip-rule="evenodd" d="M343.241 74.9913C342.937 77.4013 340.076 79.0253 336.85 78.6193C333.624 78.2133 331.255 75.9303 331.557 73.5213C331.861 71.1113 334.722 69.4863 337.948 69.8923C341.175 70.2983 343.544 72.5813 343.241 74.9913Z" fill="#DEECE4"/>
<path fill-rule="evenodd" clip-rule="evenodd" d="M250.115 103.879C247.005 108.606 241.79 111.436 236.27 109.036C233.556 107.856 231.532 105.697 229.386 103.71C227.87 102.303 226.294 100.982 224.371 100.152C220.299 98.3954 215.208 98.0224 214.914 92.4084C214.605 86.5114 220.595 83.5544 225.379 82.1154C229.678 80.8234 234.353 81.9034 238.789 81.3294C242.846 80.8044 246.753 78.9114 250.843 79.1614C254.771 79.4004 260.331 80.0424 262.757 83.6484C265.967 88.4214 260.925 92.9104 257.464 95.5714C254.504 97.8464 252.157 100.776 250.115 103.879Z" fill="#DEECE4"/>
<path fill-rule="evenodd" clip-rule="evenodd" d="M225.486 127.372C225.769 121.519 229.544 116.947 233.916 117.159C238.287 117.371 241.601 122.287 241.317 128.139C241.034 133.992 237.26 138.564 232.888 138.352C228.516 138.141 225.203 133.225 225.486 127.372Z" fill="#DEECE4"/>
<path fill-rule="evenodd" clip-rule="evenodd" d="M247.606 127.296C245.793 121.724 247.696 116.109 251.857 114.754C256.019 113.399 260.864 116.817 262.677 122.389C264.492 127.961 262.588 133.575 258.426 134.93C254.264 136.286 249.42 132.867 247.606 127.296Z" fill="#DEECE4"/>
<path fill-rule="evenodd" clip-rule="evenodd" d="M211.536 120.882C208.16 119.938 206.447 115.509 207.71 110.99C208.973 106.471 212.734 103.572 216.11 104.516C219.486 105.46 221.199 109.888 219.935 114.407C218.672 118.927 214.911 121.825 211.536 120.882Z" fill="#DEECE4"/>
<path fill-rule="evenodd" clip-rule="evenodd" d="M264.62 108.421C262.212 104.394 262.698 99.6709 265.707 97.8719C268.715 96.0729 273.106 97.8789 275.515 101.907C277.923 105.934 277.436 110.657 274.428 112.456C271.419 114.255 267.028 112.449 264.62 108.421Z" fill="#DEECE4"/>
<mask id="mask1" mask-type="alpha" maskUnits="userSpaceOnUse" x="351" y="176" width="27" height="29">
<path fill-rule="evenodd" clip-rule="evenodd" d="M351.664 176.114L351.664 204.345L377.621 204.345L377.621 176.114L351.664 176.114Z" fill="white"/>
</mask>
<g mask="url(#mask1)">
<path fill-rule="evenodd" clip-rule="evenodd" d="M352.113 195.424C352.635 192.857 352.532 190.224 352.187 187.641C351.662 183.705 353.124 179.807 357.153 178.541C359.134 177.918 361.201 178.131 363.252 178.198C364.702 178.246 366.145 178.221 367.547 177.777C370.512 176.836 373.383 174.693 376.12 177.533C378.996 180.516 377.181 184.838 375.306 187.801C373.623 190.463 370.647 192.041 368.56 194.385C366.651 196.529 365.451 199.328 363.169 201.077C360.976 202.757 357.734 204.974 354.79 204.178C350.894 203.124 351.502 198.426 352.113 195.424Z" fill="#DEECE4"/>
</g>
<path fill-rule="evenodd" clip-rule="evenodd" d="M345.694 170.736C343.153 167.504 343.05 163.344 345.465 161.446C347.88 159.548 351.897 160.63 354.438 163.862C356.979 167.094 357.082 171.254 354.667 173.152C352.253 175.05 348.235 173.968 345.694 170.736Z" fill="#DEECE4"/>
<path fill-rule="evenodd" clip-rule="evenodd" d="M346.261 182.678C344.678 185.31 340.538 185.726 337.015 183.608C333.491 181.489 331.918 177.637 333.5 175.005C335.083 172.373 339.223 171.957 342.746 174.075C346.271 176.195 347.844 180.046 346.261 182.678Z" fill="#DEECE4"/>
<path fill-rule="evenodd" clip-rule="evenodd" d="M363.342 168.182C361.934 165.205 362.594 161.94 364.817 160.887C367.04 159.835 369.985 161.394 371.394 164.371C372.802 167.348 372.142 170.613 369.918 171.665C367.696 172.718 364.751 171.158 363.342 168.182Z" fill="#DEECE4"/>
<path fill-rule="evenodd" clip-rule="evenodd" d="M346.685 197.996C345.917 200.333 342.759 201.395 339.63 200.368C336.502 199.341 334.587 196.613 335.355 194.276C336.122 191.939 339.281 190.877 342.41 191.905C345.538 192.932 347.453 195.659 346.685 197.996Z" fill="#DEECE4"/>
<path fill-rule="evenodd" clip-rule="evenodd" d="M300.491 239.056C299.263 237.883 298.601 236.321 297.841 234.827C297.303 233.77 296.716 232.747 295.845 231.92C294.002 230.168 291.337 228.96 292.29 225.88C293.29 222.646 297.098 222.24 299.958 222.413C302.527 222.569 304.83 224.075 307.331 224.644C309.618 225.165 312.095 224.92 314.246 225.864C316.312 226.77 319.178 228.216 319.769 230.637C320.552 233.841 316.95 235.259 314.56 236.005C312.517 236.643 310.675 237.756 308.962 239.021C306.352 240.949 302.985 241.44 300.491 239.056Z" fill="#DEECE4"/>
<path fill-rule="evenodd" clip-rule="evenodd" d="M299.425 250.334C298.113 253.427 295.178 255.141 292.867 254.162C290.557 253.182 289.746 249.88 291.058 246.787C292.368 243.694 295.305 241.98 297.615 242.959C299.926 243.939 300.737 247.241 299.425 250.334Z" fill="#DEECE4"/>
<path fill-rule="evenodd" clip-rule="evenodd" d="M302.977 251.125C303.104 247.768 305.24 245.123 307.748 245.218C310.255 245.313 312.186 248.11 312.059 251.468C311.932 254.825 309.796 257.47 307.289 257.375C304.781 257.281 302.851 254.482 302.977 251.125Z" fill="#DEECE4"/>
<path fill-rule="evenodd" clip-rule="evenodd" d="M290.637 238.712C289.063 240.894 286.465 241.709 284.835 240.533C283.205 239.357 283.16 236.635 284.735 234.453C286.31 232.271 288.907 231.456 290.536 232.632C292.166 233.808 292.212 236.53 290.637 238.712Z" fill="#DEECE4"/>
<path fill-rule="evenodd" clip-rule="evenodd" d="M315.869 244.336C315.371 241.692 316.567 239.247 318.543 238.874C320.517 238.502 322.523 240.343 323.021 242.987C323.52 245.631 322.323 248.076 320.348 248.449C318.374 248.821 316.368 246.98 315.869 244.336Z" fill="#DEECE4"/>
<path fill-rule="evenodd" clip-rule="evenodd" d="M216.566 286.879C211.864 287.106 207.404 284.989 206.311 280.103C205.773 277.7 206.23 275.281 206.515 272.864C206.716 271.155 206.831 269.448 206.446 267.749C205.629 264.15 203.384 260.546 207.013 257.595C210.825 254.496 215.75 257.07 219.063 259.581C222.04 261.837 223.607 265.509 226.168 268.209C228.51 270.678 231.698 272.376 233.536 275.247C235.301 278.004 237.597 282.056 236.363 285.455C234.729 289.953 229.239 288.766 225.754 287.744C222.773 286.87 219.652 286.73 216.566 286.879Z" fill="#DEECE4"/>
<path fill-rule="evenodd" clip-rule="evenodd" d="M184.948 292.205C182.947 289.163 184.625 284.524 188.698 281.845C192.771 279.166 197.695 279.46 199.697 282.502C201.698 285.544 200.019 290.183 195.946 292.862C191.873 295.541 186.949 295.247 184.948 292.205Z" fill="#DEECE4"/>
<path fill-rule="evenodd" clip-rule="evenodd" d="M199.596 296.677C202.451 292.725 207.158 291.251 210.111 293.384C213.062 295.517 213.14 300.449 210.285 304.4C207.43 308.352 202.723 309.826 199.771 307.693C196.82 305.561 196.742 300.629 199.596 296.677Z" fill="#DEECE4"/>
<path fill-rule="evenodd" clip-rule="evenodd" d="M199.461 264.336C200.482 267.068 198.346 270.391 194.689 271.758C191.031 273.125 187.239 272.019 186.218 269.287C185.197 266.555 187.334 263.232 190.99 261.865C194.648 260.498 198.44 261.604 199.461 264.336Z" fill="#DEECE4"/>
<path fill-rule="evenodd" clip-rule="evenodd" d="M220.626 298.855C222.152 295.262 225.565 293.272 228.25 294.412C230.934 295.552 231.873 299.389 230.347 302.983C228.821 306.577 225.408 308.566 222.724 307.426C220.039 306.286 219.101 302.449 220.626 298.855Z" fill="#DEECE4"/>
<path fill-rule="evenodd" clip-rule="evenodd" d="M291.14 389.793C291.267 387.393 290.817 385.018 290.155 382.72C289.146 379.22 289.945 375.484 293.43 373.791C295.144 372.958 297.047 372.871 298.917 372.655C300.241 372.501 301.546 372.284 302.758 371.691C305.323 370.436 307.637 368.103 310.505 370.31C313.518 372.627 312.456 376.795 311.157 379.737C309.989 382.38 307.502 384.215 305.925 386.625C304.483 388.829 303.773 391.532 301.938 393.427C300.175 395.248 297.534 397.698 294.754 397.375C291.076 396.946 290.992 392.6 291.14 389.793Z" fill="#DEECE4"/>
<path fill-rule="evenodd" clip-rule="evenodd" d="M281.974 368.259C279.231 365.669 278.576 361.909 280.509 359.86C282.444 357.81 286.236 358.248 288.979 360.838C291.723 363.427 292.378 367.188 290.444 369.237C288.509 371.286 284.717 370.848 281.974 368.259Z" fill="#DEECE4"/>
<path fill-rule="evenodd" clip-rule="evenodd" d="M284.104 379.019C283.024 381.622 279.324 382.559 275.839 381.113C272.355 379.667 270.407 376.385 271.487 373.782C272.567 371.18 276.267 370.242 279.751 371.688C283.236 373.134 285.185 376.416 284.104 379.019Z" fill="#DEECE4"/>
<path fill-rule="evenodd" clip-rule="evenodd" d="M297.643 363.553C295.962 361.043 296.12 357.99 297.995 356.734C299.87 355.478 302.752 356.495 304.434 359.006C306.115 361.516 305.957 364.569 304.082 365.824C302.207 367.08 299.325 366.063 297.643 363.553Z" fill="#DEECE4"/>
<path fill-rule="evenodd" clip-rule="evenodd" d="M286.563 392.861C286.183 395.086 283.46 396.477 280.483 395.967C277.504 395.459 275.399 393.243 275.779 391.018C276.159 388.794 278.881 387.403 281.859 387.912C284.837 388.421 286.943 390.636 286.563 392.861Z" fill="#DEECE4"/>
<path fill-rule="evenodd" clip-rule="evenodd" d="M250.484 427.68C246.626 426.065 243.857 422.663 244.847 418.326C245.335 416.193 246.626 414.428 247.778 412.598C248.592 411.304 249.337 409.978 249.677 408.468C250.398 405.27 249.974 401.521 254.012 400.541C258.254 399.512 261.22 403.459 262.919 406.739C264.444 409.685 264.297 413.23 265.32 416.374C266.255 419.249 268.164 421.829 268.541 424.834C268.903 427.721 269.196 431.848 266.907 434.102C263.879 437.086 259.928 434.036 257.523 431.885C255.466 430.045 253.016 428.74 250.484 427.68Z" fill="#DEECE4"/>
<path fill-rule="evenodd" clip-rule="evenodd" d="M238.626 417.723C239.068 420.928 235.949 424.007 231.659 424.6C227.368 425.193 223.531 423.075 223.089 419.87C222.646 416.665 225.765 413.586 230.056 412.994C234.346 412.401 238.183 414.518 238.626 417.723Z" fill="#DEECE4"/>
<path fill-rule="evenodd" clip-rule="evenodd" d="M242.821 430.431C244.374 433.27 242.552 437.256 238.752 439.334C234.952 441.412 230.613 440.796 229.06 437.958C227.508 435.119 229.33 431.133 233.13 429.055C236.929 426.976 241.269 427.593 242.821 430.431Z" fill="#DEECE4"/>
<path fill-rule="evenodd" clip-rule="evenodd" d="M245.379 403.063C245.154 405.644 242.171 407.493 238.715 407.192C235.26 406.891 232.641 404.555 232.865 401.973C233.09 399.392 236.073 397.543 239.529 397.844C242.984 398.145 245.604 400.481 245.379 403.063Z" fill="#DEECE4"/>
<path fill-rule="evenodd" clip-rule="evenodd" d="M249.164 438.838C251.761 436.539 255.259 436.248 256.976 438.188C258.694 440.128 257.98 443.565 255.384 445.864C252.786 448.163 249.289 448.454 247.571 446.514C245.853 444.574 246.566 441.137 249.164 438.838Z" fill="#DEECE4"/>
<path fill-rule="evenodd" clip-rule="evenodd" d="M276.951 516.28C273.801 521.46 268.325 524.69 262.323 522.331C259.372 521.171 257.121 518.937 254.748 516.89C253.07 515.442 251.331 514.088 249.24 513.272C244.813 511.547 239.347 511.341 238.818 505.341C238.262 499.038 244.562 495.642 249.631 493.919C254.184 492.371 259.234 493.348 263.962 492.564C268.286 491.847 272.397 489.672 276.787 489.783C281.002 489.889 286.98 490.364 289.716 494.133C293.336 499.121 288.108 504.121 284.503 507.102C281.421 509.651 279.019 512.88 276.951 516.28Z" fill="#DEECE4"/>
<path fill-rule="evenodd" clip-rule="evenodd" d="M251.474 542.378C251.554 536.1 255.42 531.059 260.11 531.118C264.799 531.179 268.536 536.316 268.456 542.595C268.376 548.872 264.509 553.913 259.82 553.854C255.13 553.794 251.393 548.655 251.474 542.378Z" fill="#DEECE4"/>
<path fill-rule="evenodd" clip-rule="evenodd" d="M275.159 541.451C273.004 535.555 274.827 529.469 279.232 527.859C283.637 526.249 288.955 529.723 291.11 535.621C293.266 541.517 291.442 547.603 287.037 549.214C282.633 550.824 277.314 547.348 275.159 541.451Z" fill="#DEECE4"/>
<path fill-rule="evenodd" clip-rule="evenodd" d="M236.288 535.961C232.637 535.079 230.634 530.402 231.813 525.515C232.994 520.627 236.91 517.379 240.561 518.261C244.213 519.143 246.216 523.819 245.036 528.707C243.855 533.595 239.939 536.843 236.288 535.961Z" fill="#DEECE4"/>
<path fill-rule="evenodd" clip-rule="evenodd" d="M292.656 520.59C289.924 516.368 290.264 511.292 293.418 509.251C296.57 507.21 301.342 508.977 304.074 513.197C306.806 517.418 306.467 522.494 303.313 524.536C300.161 526.577 295.389 524.811 292.656 520.59Z" fill="#DEECE4"/>
<path fill-rule="evenodd" clip-rule="evenodd" d="M224.795 563.171C221.478 561.726 219.124 558.747 220.036 555.006C220.484 553.166 221.624 551.654 222.644 550.086C223.364 548.977 224.025 547.839 224.339 546.536C225.003 543.777 224.684 540.528 228.191 539.731C231.874 538.894 234.392 542.347 235.819 545.206C237.103 547.775 236.932 550.841 237.776 553.574C238.55 556.074 240.169 558.331 240.457 560.937C240.734 563.439 240.936 567.014 238.927 568.936C236.268 571.48 232.889 568.791 230.834 566.899C229.077 565.281 226.974 564.12 224.795 563.171Z" fill="#DEECE4"/>
<path fill-rule="evenodd" clip-rule="evenodd" d="M214.658 554.406C215.001 557.184 212.262 559.809 208.543 560.268C204.822 560.727 201.528 558.847 201.185 556.068C200.843 553.289 203.581 550.664 207.301 550.205C211.021 549.746 214.315 551.627 214.658 554.406Z" fill="#DEECE4"/>
<path fill-rule="evenodd" clip-rule="evenodd" d="M218.129 565.456C219.437 567.932 217.811 571.358 214.495 573.109C211.181 574.859 207.434 574.271 206.126 571.796C204.818 569.32 206.445 565.893 209.76 564.143C213.074 562.392 216.821 562.979 218.129 565.456Z" fill="#DEECE4"/>
<path fill-rule="evenodd" clip-rule="evenodd" d="M220.688 541.805C220.461 544.035 217.856 545.598 214.87 545.294C211.882 544.991 209.645 542.936 209.873 540.704C210.099 538.473 212.705 536.911 215.691 537.215C218.678 537.519 220.915 539.574 220.688 541.805Z" fill="#DEECE4"/>
<path fill-rule="evenodd" clip-rule="evenodd" d="M223.513 572.81C225.789 570.853 228.82 570.645 230.282 572.346C231.743 574.046 231.083 577.011 228.807 578.968C226.531 580.925 223.499 581.133 222.037 579.433C220.575 577.732 221.237 574.767 223.513 572.81Z" fill="#DEECE4"/>
<path fill-rule="evenodd" clip-rule="evenodd" d="M156.534 584.015C151.717 582.428 148.048 578.577 148.835 573.239C149.222 570.614 150.616 568.357 151.835 566.036C152.698 564.395 153.472 562.721 153.741 560.863C154.31 556.928 153.443 552.435 158.233 550.869C163.263 549.222 167.223 553.714 169.587 557.519C171.71 560.937 171.869 565.237 173.403 568.941C174.806 572.329 177.357 575.268 178.097 578.866C178.808 582.322 179.553 587.284 176.999 590.226C173.619 594.12 168.555 590.806 165.443 588.432C162.782 586.403 159.697 585.056 156.534 584.015Z" fill="#DEECE4"/>
<path fill-rule="evenodd" clip-rule="evenodd" d="M141.254 573.098C142.093 576.931 138.613 580.949 133.482 582.072C128.35 583.195 123.51 580.997 122.671 577.164C121.833 573.331 125.313 569.314 130.444 568.191C135.576 567.068 140.416 569.265 141.254 573.098Z" fill="#DEECE4"/>
<path fill-rule="evenodd" clip-rule="evenodd" d="M147.53 588.066C149.676 591.351 147.85 596.343 143.452 599.215C139.054 602.088 133.75 601.754 131.604 598.468C129.459 595.183 131.284 590.192 135.682 587.319C140.08 584.447 145.384 584.781 147.53 588.066Z" fill="#DEECE4"/>
<path fill-rule="evenodd" clip-rule="evenodd" d="M148.034 554.733C148.007 557.876 144.574 560.393 140.367 560.356C136.161 560.319 132.773 557.742 132.801 554.6C132.828 551.458 136.261 548.94 140.467 548.977C144.674 549.013 148.061 551.59 148.034 554.733Z" fill="#DEECE4"/>
<path fill-rule="evenodd" clip-rule="evenodd" d="M164.181 605.536C161.258 608.561 157.056 609.245 154.797 607.061C152.536 604.879 153.073 600.656 155.996 597.63C158.918 594.604 163.12 593.922 165.38 596.104C167.64 598.288 167.103 602.511 164.181 605.536Z" fill="#DEECE4"/>
<path fill-rule="evenodd" clip-rule="evenodd" d="M185.353 628.09C185.808 625.714 185.683 623.283 185.336 620.902C184.808 617.273 186.116 613.656 189.823 612.443C191.645 611.846 193.556 612.02 195.451 612.06C196.791 612.088 198.124 612.049 199.412 611.623C202.142 610.721 204.769 608.71 207.328 611.304C210.017 614.027 208.388 618.038 206.689 620.795C205.163 623.272 202.434 624.762 200.531 626.949C198.792 628.951 197.715 631.55 195.626 633.19C193.619 634.765 190.649 636.848 187.922 636.145C184.312 635.215 184.822 630.869 185.353 628.09Z" fill="#DEECE4"/>
<path fill-rule="evenodd" clip-rule="evenodd" d="M179.154 605.361C176.772 602.404 176.632 598.563 178.841 596.784C181.05 595.005 184.772 595.96 187.154 598.917C189.536 601.874 189.677 605.714 187.467 607.494C185.258 609.273 181.536 608.318 179.154 605.361Z" fill="#DEECE4"/>
<path fill-rule="evenodd" clip-rule="evenodd" d="M179.81 616.384C178.377 618.832 174.559 619.262 171.281 617.344C168.003 615.426 166.508 611.886 167.941 609.438C169.373 606.989 173.192 606.56 176.47 608.478C179.748 610.396 181.243 613.936 179.81 616.384Z" fill="#DEECE4"/>
<path fill-rule="evenodd" clip-rule="evenodd" d="M195.423 602.808C194.089 600.075 194.663 597.051 196.705 596.055C198.746 595.059 201.483 596.467 202.817 599.201C204.151 601.933 203.576 604.956 201.535 605.954C199.493 606.95 196.757 605.541 195.423 602.808Z" fill="#DEECE4"/>
<path fill-rule="evenodd" clip-rule="evenodd" d="M180.37 630.525C179.687 632.691 176.782 633.707 173.881 632.793C170.981 631.879 169.183 629.38 169.866 627.213C170.549 625.047 173.454 624.032 176.354 624.946C179.255 625.86 181.053 628.358 180.37 630.525Z" fill="#DEECE4"/>
<path fill-rule="evenodd" clip-rule="evenodd" d="M49.6583 661.696C53.3663 662.076 56.6203 663.892 59.9523 665.459C62.3103 666.566 64.7063 667.55 67.3303 667.81C72.8873 668.364 79.1383 666.868 81.6363 673.492C84.2593 680.449 78.2013 686.286 73.0103 689.84C68.3453 693.032 62.3223 693.522 57.2183 695.905C52.5513 698.085 48.5863 701.847 43.5833 703.11C38.7783 704.323 31.8613 705.676 27.5733 702.276C21.8983 697.775 26.2333 690.463 29.3713 685.947C32.0533 682.088 33.7513 677.675 35.0153 673.172C36.9433 666.312 42.1193 660.924 49.6583 661.696Z" fill="#DEECE4"/>
<path fill-rule="evenodd" clip-rule="evenodd" d="M55.5978 635.576C57.4928 642.707 54.7108 649.635 49.3838 651.051C44.0568 652.466 38.2028 647.833 36.3078 640.702C34.4128 633.571 37.1948 626.642 42.5218 625.227C47.8478 623.811 53.7028 628.445 55.5978 635.576Z" fill="#DEECE4"/>
<path fill-rule="evenodd" clip-rule="evenodd" d="M29.0804 644.116C33.3854 650.108 33.2464 657.573 28.7694 660.789C24.2924 664.004 17.1744 661.753 12.8704 655.76C8.56538 649.767 8.70438 642.303 13.1814 639.088C17.6574 635.872 24.7754 638.123 29.0804 644.116Z" fill="#DEECE4"/>
<path fill-rule="evenodd" clip-rule="evenodd" d="M75.5764 659.421C71.1654 659.578 67.4184 654.918 67.2084 649.013C66.9984 643.108 70.4044 638.192 74.8154 638.035C79.2264 637.879 82.9724 642.538 83.1834 648.443C83.3934 654.349 79.9884 659.264 75.5764 659.421Z" fill="#DEECE4"/>
<mask id="mask2" mask-type="alpha" maskUnits="userSpaceOnUse" x="0" y="669" width="21" height="20">
<path fill-rule="evenodd" clip-rule="evenodd" d="M0.974609 669.974L0.974609 688.528L20.1902 688.528L20.1902 669.974L0.974609 669.974Z" fill="white"/>
</mask>
<g mask="url(#mask2)">
<path fill-rule="evenodd" clip-rule="evenodd" d="M18.6 686.336C15.677 689.644 9.71801 689.153 5.29001 685.24C0.862013 681.327 -0.357987 675.474 2.56501 672.166C5.48801 668.858 11.447 669.35 15.875 673.263C20.303 677.176 21.523 683.028 18.6 686.336Z" fill="#DEECE4"/>
</g>
<path fill-rule="evenodd" clip-rule="evenodd" d="M172.539 690.543C174.114 685.576 178.028 681.764 183.52 682.512C186.221 682.879 188.555 684.285 190.953 685.512C192.649 686.378 194.376 687.155 196.289 687.41C200.336 687.949 204.942 687.008 206.606 691.91C208.354 697.059 203.785 701.178 199.904 703.648C196.417 705.868 192.002 706.081 188.214 707.698C184.75 709.178 181.761 711.832 178.073 712.633C174.532 713.402 169.443 714.225 166.392 711.635C162.353 708.207 165.7 702.968 168.102 699.743C170.157 696.987 171.505 693.804 172.539 690.543Z" fill="#DEECE4"/>
<path fill-rule="evenodd" clip-rule="evenodd" d="M183.578 674.724C179.65 675.629 175.484 672.101 174.272 666.842C173.06 661.584 175.262 656.588 179.19 655.683C183.118 654.778 187.284 658.306 188.496 663.565C189.707 668.823 187.506 673.819 183.578 674.724Z" fill="#DEECE4"/>
<path fill-rule="evenodd" clip-rule="evenodd" d="M157.409 665.101C160.759 662.859 165.907 664.677 168.908 669.163C171.909 673.647 171.625 679.099 168.276 681.34C164.926 683.582 159.777 681.764 156.777 677.279C153.776 672.794 154.059 667.342 157.409 665.101Z" fill="#DEECE4"/>
<path fill-rule="evenodd" clip-rule="evenodd" d="M202.519 681.478C199.29 681.486 196.665 677.989 196.656 673.667C196.645 669.346 199.253 665.836 202.482 665.83C205.709 665.822 208.334 669.319 208.345 673.64C208.355 677.961 205.747 681.47 202.519 681.478Z" fill="#DEECE4"/>
<path fill-rule="evenodd" clip-rule="evenodd" d="M160.222 699.766C158.005 702.113 153.662 701.61 150.52 698.642C147.379 695.674 146.63 691.367 148.847 689.02C151.063 686.673 155.407 687.177 158.548 690.145C161.689 693.112 162.439 697.42 160.222 699.766Z" fill="#DEECE4"/>
<path fill-rule="evenodd" clip-rule="evenodd" d="M244.285 713.066C239.287 712.59 234.901 709.677 234.491 704.353C234.29 701.734 235.14 699.25 235.808 696.743C236.281 694.969 236.662 693.184 236.514 691.332C236.201 687.409 234.38 683.262 238.659 680.7C243.154 678.008 247.962 681.476 251.077 684.63C253.875 687.464 254.972 691.58 257.264 694.819C259.36 697.783 262.467 700.06 263.97 703.371C265.414 706.55 267.221 711.176 265.4 714.576C262.991 719.076 257.377 716.987 253.852 715.378C250.84 714.003 247.566 713.378 244.285 713.066Z" fill="#DEECE4"/>
<path fill-rule="evenodd" clip-rule="evenodd" d="M215.635 703.512C220.342 701.303 225.494 702.364 227.145 705.879C228.794 709.396 226.316 714.036 221.609 716.244C216.902 718.453 211.749 717.393 210.099 713.877C208.449 710.361 210.928 705.72 215.635 703.512Z" fill="#DEECE4"/>
<path fill-rule="evenodd" clip-rule="evenodd" d="M234.989 730.606C231.374 734.343 226.18 735.183 223.388 732.482C220.597 729.782 221.265 724.563 224.882 720.827C228.497 717.089 233.69 716.25 236.481 718.951C239.272 721.651 238.604 726.87 234.989 730.606Z" fill="#DEECE4"/>
<path fill-rule="evenodd" clip-rule="evenodd" d="M214.928 689.878C214.266 686.839 217.028 683.656 221.096 682.77C225.164 681.883 228.999 683.628 229.661 686.667C230.324 689.706 227.563 692.889 223.494 693.774C219.426 694.661 215.591 692.917 214.928 689.878Z" fill="#DEECE4"/>
<path fill-rule="evenodd" clip-rule="evenodd" d="M246.748 726.328C248.906 722.766 252.811 721.186 255.472 722.798C258.132 724.41 258.54 728.603 256.382 732.165C254.224 735.725 250.318 737.307 247.658 735.694C244.998 734.083 244.591 729.889 246.748 726.328Z" fill="#DEECE4"/>
<path fill-rule="evenodd" clip-rule="evenodd" d="M152.37 821.714C154.278 823.302 156.732 824.259 158.309 826.181C159.824 828.027 161.833 830.766 161.231 833.333C160.433 836.731 156.354 836.341 153.742 835.9C151.509 835.522 149.236 835.688 147.013 836.06C143.627 836.627 140.215 835.476 139.005 832.029C138.41 830.335 138.535 828.544 138.534 826.77C138.533 825.514 138.47 824.268 138.045 823.069C137.146 820.533 135.211 818.114 137.587 815.666C140.082 813.096 143.87 814.539 146.485 816.073C148.834 817.452 150.284 819.978 152.37 821.714Z" fill="#DEECE4"/>
<path fill-rule="evenodd" clip-rule="evenodd" d="M132.59 842.159C129.869 844.448 126.278 844.657 124.568 842.625C122.857 840.593 123.676 837.089 126.397 834.8C129.117 832.511 132.709 832.302 134.419 834.334C136.13 836.366 135.31 839.869 132.59 842.159Z" fill="#DEECE4"/>
<path fill-rule="evenodd" clip-rule="evenodd" d="M142.894 841.324C145.215 842.616 145.694 846.181 143.964 849.288C142.234 852.394 138.951 853.865 136.63 852.573C134.31 851.281 133.831 847.716 135.561 844.609C137.29 841.503 140.574 840.032 142.894 841.324Z" fill="#DEECE4"/>
<path fill-rule="evenodd" clip-rule="evenodd" d="M132.694 821.195C133.668 823.087 132.405 825.676 129.873 826.98C127.341 828.283 124.5 827.806 123.526 825.916C122.552 824.024 123.816 821.434 126.347 820.132C128.879 818.828 131.721 819.304 132.694 821.195Z" fill="#DEECE4"/>
<path fill-rule="evenodd" clip-rule="evenodd" d="M150.98 844.387C151.777 841.654 154.08 839.92 156.121 840.516C158.163 841.113 159.172 843.811 158.375 846.544C157.577 849.279 155.275 851.011 153.233 850.415C151.191 849.82 150.182 847.12 150.98 844.387Z" fill="#DEECE4"/>
<path fill-rule="evenodd" clip-rule="evenodd" d="M199.8 850.631C197.304 851.101 194.826 850.543 192.345 850.164C190.591 849.896 188.834 849.717 187.069 850.055C183.331 850.768 179.535 852.955 176.622 849.11C173.562 845.07 176.391 840.085 179.096 836.758C181.527 833.77 185.368 832.284 188.242 829.739C190.87 827.412 192.734 824.187 195.758 822.394C198.663 820.671 202.921 818.448 206.381 819.841C210.96 821.685 209.542 827.302 208.365 830.86C207.36 833.901 207.104 837.112 207.149 840.3C207.216 845.154 204.876 849.677 199.8 850.631Z" fill="#DEECE4"/>
<path fill-rule="evenodd" clip-rule="evenodd" d="M211.519 873.081C208.312 875.037 203.59 873.142 200.972 868.849C198.355 864.556 198.832 859.49 202.04 857.534C205.247 855.579 209.968 857.474 212.586 861.768C215.204 866.06 214.726 871.126 211.519 873.081Z" fill="#DEECE4"/>
<path fill-rule="evenodd" clip-rule="evenodd" d="M213.625 847.184C215.928 844.216 221.016 844.31 224.987 847.393C228.96 850.477 230.312 855.381 228.01 858.349C225.707 861.316 220.62 861.222 216.647 858.139C212.675 855.055 211.322 850.151 213.625 847.184Z" fill="#DEECE4"/>
<path fill-rule="evenodd" clip-rule="evenodd" d="M190.785 862.314C192.065 866.132 190.791 870.002 187.938 870.959C185.086 871.915 181.736 869.594 180.456 865.776C179.177 861.958 180.452 858.087 183.304 857.131C186.156 856.175 189.505 858.496 190.785 862.314Z" fill="#DEECE4"/>
<path fill-rule="evenodd" clip-rule="evenodd" d="M215.328 828.522C216.599 825.794 220.587 824.962 224.237 826.664C227.889 828.364 229.818 831.953 228.548 834.679C227.277 837.406 223.289 838.238 219.639 836.538C215.988 834.837 214.058 831.249 215.328 828.522Z" fill="#DEECE4"/>
<path fill-rule="evenodd" clip-rule="evenodd" d="M220.939 892.631C224.461 893.482 228.292 893.153 231.595 894.655C234.768 896.098 239.164 898.39 240.027 902.14C241.17 907.105 235.579 909.221 231.873 910.325C228.705 911.269 225.835 912.949 223.164 914.868C219.094 917.792 213.884 918.482 210.081 914.749C208.21 912.912 207.218 910.486 206.074 908.163C205.265 906.52 204.379 904.928 203.051 903.632C200.241 900.889 196.149 898.968 197.683 894.232C199.295 889.257 205.186 888.708 209.598 889.033C213.563 889.326 217.089 891.7 220.939 892.631Z" fill="#DEECE4"/>
<path fill-rule="evenodd" clip-rule="evenodd" d="M208.204 932.145C206.116 936.896 201.547 939.483 197.998 937.922C194.449 936.363 193.266 931.247 195.353 926.497C197.442 921.746 202.012 919.159 205.56 920.719C209.109 922.279 210.293 927.395 208.204 932.145Z" fill="#DEECE4"/>
<path fill-rule="evenodd" clip-rule="evenodd" d="M213.673 933.441C213.938 928.258 217.29 924.217 221.162 924.415C225.033 924.612 227.957 928.973 227.693 934.156C227.428 939.338 224.075 943.38 220.204 943.182C216.333 942.985 213.409 938.624 213.673 933.441Z" fill="#DEECE4"/>
<path fill-rule="evenodd" clip-rule="evenodd" d="M194.869 914.017C192.392 917.355 188.364 918.561 185.871 916.711C183.378 914.862 183.364 910.657 185.84 907.319C188.316 903.981 192.345 902.775 194.838 904.624C197.331 906.474 197.345 910.679 194.869 914.017Z" fill="#DEECE4"/>
<path fill-rule="evenodd" clip-rule="evenodd" d="M233.723 923.22C233.007 919.126 234.906 915.373 237.963 914.839C241.022 914.304 244.081 917.189 244.797 921.283C245.513 925.376 243.615 929.128 240.557 929.663C237.499 930.199 234.44 927.314 233.723 923.22Z" fill="#DEECE4"/>
<path fill-rule="evenodd" clip-rule="evenodd" d="M333.336 898.237C328.735 898.125 324.536 895.745 323.816 890.903C323.463 888.521 324.08 886.195 324.529 883.859C324.847 882.207 325.079 880.55 324.824 878.865C324.283 875.299 322.35 871.625 326.097 869.005C330.033 866.253 334.653 869.112 337.706 871.795C340.448 874.205 341.717 877.897 344.023 880.712C346.132 883.285 349.12 885.167 350.708 888.096C352.234 890.911 354.186 895.024 352.741 898.251C350.83 902.521 345.561 900.974 342.234 899.731C339.39 898.668 336.357 898.31 333.336 898.237Z" fill="#DEECE4"/>
<path fill-rule="evenodd" clip-rule="evenodd" d="M302.128 901.19C300.392 898.082 302.357 893.677 306.519 891.353C310.68 889.03 315.46 889.666 317.196 892.773C318.933 895.881 316.967 900.286 312.806 902.61C308.645 904.934 303.863 904.298 302.128 901.19Z" fill="#DEECE4"/>
<path fill-rule="evenodd" clip-rule="evenodd" d="M325.972 914.877C322.909 918.528 318.213 919.632 315.487 917.343C312.759 915.055 313.033 910.239 316.097 906.589C319.16 902.938 323.855 901.834 326.582 904.122C329.31 906.411 329.036 911.227 325.972 914.877Z" fill="#DEECE4"/>
<path fill-rule="evenodd" clip-rule="evenodd" d="M318.255 875.043C319.058 877.779 316.738 880.868 313.075 881.942C309.413 883.016 305.793 881.669 304.991 878.933C304.189 876.196 306.508 873.107 310.17 872.034C313.833 870.96 317.453 872.308 318.255 875.043Z" fill="#DEECE4"/>
<path fill-rule="evenodd" clip-rule="evenodd" d="M336.446 910.203C338.189 906.807 341.658 905.109 344.195 906.411C346.732 907.713 347.376 911.521 345.633 914.917C343.89 918.313 340.422 920.011 337.884 918.709C335.347 917.407 334.704 913.599 336.446 910.203Z" fill="#DEECE4"/>
</g>
</svg>
