<svg width="1248" height="457" viewBox="0 0 1248 457" fill="none" xmlns="http://www.w3.org/2000/svg">
<path fill-rule="evenodd" clip-rule="evenodd" d="M39.7417 360.758C18.4838 356.016 8.84937 359.687 3.26038 373.852C0.427856 381.02 -5.34387 389.335 11.7803 396.302C32.8165 404.856 65.0431 399.772 75.162 400.044C102.099 400.757 122.489 382.868 121.762 389.35C120.637 399.49 137.008 408.714 150.097 410.29C164.697 412.051 184.007 403.904 208.582 401.645C254.234 397.457 267.696 387.012 313.775 398.707C360.11 410.463 367.836 399.507 410.446 396.833C453.052 394.161 476.753 402.982 511.11 399.237C545.463 395.496 604.042 391.758 604.042 391.758C610.698 409.136 626.697 413.705 647.204 416.374C667.708 419.048 735.608 409.4 753.183 408.594C770.759 407.791 783.277 400.31 783.277 400.31C821.629 406.726 839.202 396.569 847.225 394.054C855.653 391.41 901.219 412.117 950.075 416.541C991.105 420.257 1093.69 428.333 1146.22 436.074C1198.75 443.817 1258.64 470.227 1265.68 448.779C1271.19 431.969 1258.55 418.974 1244.78 421.81C1231.06 424.638 1191.4 426.861 1152.83 415.435C1114.26 404.007 1109.83 387.822 1067.59 381.556C1025.35 375.29 976.519 386.314 943.094 374.888C909.667 363.458 883.955 338.391 873.67 325.859C863.387 313.327 854.571 314.063 845.386 292.315C836.205 270.57 827.39 262.459 809.513 248.45C779.154 224.664 758.579 208.15 727.724 196.352C696.873 184.56 650.835 170.796 638.591 196.846C638.591 196.846 500.129 185.291 467.666 179.645C430.937 173.256 423.223 152.641 414.287 136.886C404.248 119.19 398.172 108.949 385.635 93.1423C376.083 81.1028 383.431 72.9934 386.857 64.6369C390.286 56.2783 403.997 20.8952 395.674 4.18213C387.351 -12.5289 360.981 26.3022 342.293 25.3176C337.637 25.0704 328.212 11.4985 298.948 14.994C278.379 17.4533 273.969 24.3351 267.361 27.0375C261.875 29.2786 244.096 -3.18984 226.221 1.97404C208.343 7.13175 220.098 36.1315 225.24 49.1535C230.383 62.1795 235.589 64.3382 228.669 79.3788C225.73 85.7703 220.944 91.7189 225.73 125.335C227.442 137.378 220.835 128.774 221.323 148.68C221.541 157.533 217.405 161.459 218.873 171.041C219.774 176.912 222.237 180.883 226.467 188.98C229.16 194.14 223.204 202.445 217.65 220.19C212.637 236.217 206.472 265.456 201.712 282.323C196.948 299.195 194.452 311.476 171.17 322.811C142.876 336.586 142.507 331.637 123.373 337.921C107.103 343.266 86.574 350.99 79.9587 353.271C61.0161 359.798 56.521 364.501 39.7417 360.758Z" fill="url(#paint0_linear)"/>
<defs>
<linearGradient id="paint0_linear" x1="852.082" y1="144.343" x2="854.303" y2="403.63" gradientUnits="userSpaceOnUse">
<stop stop-color="#EEEEEE"/>
<stop offset="1" stop-color="white"/>
</linearGradient>
</defs>
</svg>
