<?xml version="1.0" encoding="UTF-8"?>
<svg width="669px" height="826px" viewBox="0 0 669 826" version="1.1" xmlns="http://www.w3.org/2000/svg" xmlns:xlink="http://www.w3.org/1999/xlink">
    <!-- Generator: Sketch 52.4 (67378) - http://www.bohemiancoding.com/sketch -->
    <title>POWS_2</title>
    <desc>Created with Sketch.</desc>
    <defs>
        <polygon id="path-1" points="0 0.838989137 26.433502 0.838989137 26.433502 41.8046731 0 41.8046731"></polygon>
        <polygon id="path-3" points="0.412729161 0.0433865408 28.6439406 0.0433865408 28.6439406 26 0.412729161 26"></polygon>
        <polygon id="path-5" points="0.272906865 0.354 18.8275112 0.354 18.8275112 19.5696038 0.272906865 19.5696038"></polygon>
    </defs>
    <g id="All" stroke="none" stroke-width="1" fill="none" fill-rule="evenodd">
        <g id="lp2" transform="translate(-714.000000, -2234.000000)">
            <g id="Group-25" transform="translate(-559.000000, 0.000000)">
                <g id="POWS_2" transform="translate(1554.044958, 2687.542926) scale(-1, 1) rotate(126.000000) translate(-1554.044958, -2687.542926) translate(1082.544958, 2498.542926)">
                    <g id="pow_1" transform="translate(0.000000, 169.000000)">
                        <g id="Group-3" transform="translate(0.000000, 11.646000)">
                            <mask id="mask-2" fill="white">
                                <use xlink:href="#path-1"></use>
                            </mask>
                            <g id="Clip-2"></g>
                            <path d="M24.3284,13.9113 C22.6914,12.0403 20.4484,10.9703 18.3094,9.7603 C16.7974,8.9043 15.3384,7.9793 14.1834,6.6513 C11.7394,3.8403 10.1424,-0.1387 5.5734,1.0573 C0.7754,2.3133 -0.0656,7.8613 0.0034,12.0573 C0.0654,15.8283 2.1214,19.2963 2.7934,22.9923 C3.4074,26.3733 2.8894,29.9823 4.1314,33.1923 C5.3254,36.2753 7.2564,40.5623 10.7604,41.5843 C15.3994,42.9373 17.7074,37.7573 18.9544,34.3073 C20.0204,31.3593 21.7674,28.7323 23.7304,26.3073 C26.7204,22.6123 27.6574,17.7173 24.3284,13.9113" id="Fill-1" fill="#DEECE4" mask="url(#mask-2)"></path>
                        </g>
                        <path d="M40.9045,24.7263 C45.5165,23.0063 48.2145,18.8203 46.9305,15.3753 C45.6465,11.9303 40.8655,10.5303 36.2545,12.2493 C31.6415,13.9693 28.9445,18.1563 30.2285,21.6013 C31.5125,25.0453 36.2925,26.4453 40.9045,24.7263" id="Fill-4" fill="#DEECE4"></path>
                        <path d="M32.8796,36.5768 C32.8566,40.2538 36.8276,43.2598 41.7496,43.2908 C46.6716,43.3218 50.6806,40.3668 50.7036,36.6898 C50.7276,33.0138 46.7556,30.0078 41.8346,29.9758 C36.9116,29.9448 32.9026,32.8998 32.8796,36.5768" id="Fill-6" fill="#DEECE4"></path>
                        <path d="M24.4621,11.1135 C27.7571,8.9495 29.1191,5.2005 27.5031,2.7385 C25.8861,0.2775 21.9051,0.0355 18.6101,2.1995 C15.3151,4.3635 13.9531,8.1125 15.5691,10.5735 C17.1861,13.0345 21.1671,13.2765 24.4621,11.1135" id="Fill-8" fill="#DEECE4"></path>
                        <path d="M36.7947,55.2282 C37.4677,52.3612 34.9017,49.3072 31.0647,48.4062 C27.2267,47.5052 23.5697,49.0992 22.8977,51.9662 C22.2247,54.8322 24.7907,57.8862 28.6277,58.7882 C32.4657,59.6882 36.1227,58.0942 36.7947,55.2282" id="Fill-10" fill="#DEECE4"></path>
                    </g>
                    <g id="pow_2" transform="translate(34.000000, 325.000000)" fill="#DEECE4">
                        <path d="M36.7742,23.0417 C34.1882,23.0647 31.6552,22.4687 29.2162,21.6467 C25.5002,20.3957 21.4462,21.0787 19.4602,24.7457 C18.4822,26.5497 18.2992,28.5917 17.9782,30.5927 C17.7512,32.0077 17.4552,33.4017 16.7602,34.6757 C15.2892,37.3737 12.6702,39.7517 14.9082,42.9407 C17.2572,46.2897 21.7892,45.3457 25.0142,44.0877 C27.9112,42.9567 30.0022,40.3697 32.6672,38.7887 C35.1052,37.3427 38.0452,36.7067 40.1702,34.8237 C42.2112,33.0157 44.9712,30.2907 44.7542,27.2867 C44.4682,23.3127 39.7992,23.0157 36.7742,23.0417" id="Fill-12"></path>
                        <path d="M14.0544,12.1677 C11.4004,9.0957 7.3874,8.2117 5.0934,10.1947 C2.7974,12.1777 3.0894,16.2747 5.7434,19.3477 C8.3974,22.4207 12.4094,23.3037 14.7044,21.3207 C16.9994,19.3377 16.7084,15.2397 14.0544,12.1677" id="Fill-14"></path>
                        <path d="M25.5232,14.9684 C28.3732,13.9304 29.5562,9.9964 28.1662,6.1814 C26.7762,2.3664 23.3402,0.1154 20.4902,1.1544 C17.6412,2.1924 16.4572,6.1254 17.8472,9.9414 C19.2362,13.7554 22.6732,16.0064 25.5232,14.9684" id="Fill-16"></path>
                        <path d="M8.2522,28.7917 C5.6322,26.8657 2.3422,26.8907 0.9032,28.8467 C-0.5358,30.8037 0.4212,33.9517 3.0412,35.8777 C5.6602,37.8047 8.9502,37.7797 10.3892,35.8227 C11.8282,33.8657 10.8712,30.7187 8.2522,28.7917" id="Fill-18"></path>
                        <path d="M40.2903,18.2663 C42.7003,17.9623 44.3243,15.1013 43.9183,11.8753 C43.5123,8.6493 41.2293,6.2803 38.8203,6.5823 C36.4103,6.8863 34.7853,9.7473 35.1913,12.9733 C35.5973,16.2003 37.8803,18.5693 40.2903,18.2663" id="Fill-20"></path>
                    </g>
                    <g id="pow_3" transform="translate(78.000000, 207.000000)" fill="#DEECE4">
                        <path d="M25.1785,43.1403 C29.9055,40.0303 32.7355,34.8153 30.3355,29.2953 C29.1555,26.5813 26.9965,24.5573 25.0095,22.4113 C23.6025,20.8953 22.2815,19.3193 21.4515,17.3963 C19.6945,13.3243 19.3215,8.2333 13.7075,7.9393 C7.8105,7.6303 4.8535,13.6203 3.4145,18.4043 C2.1225,22.7033 3.2025,27.3783 2.6285,31.8143 C2.1035,35.8713 0.2105,39.7783 0.4605,43.8683 C0.6995,47.7963 1.3415,53.3563 4.9475,55.7823 C9.7205,58.9923 14.2095,53.9503 16.8705,50.4893 C19.1455,47.5293 22.0755,45.1823 25.1785,43.1403" id="Fill-22"></path>
                        <path d="M48.6706,18.5104 C42.8176,18.7934 38.2456,22.5684 38.4576,26.9404 C38.6696,31.3114 43.5856,34.6254 49.4376,34.3414 C55.2906,34.0584 59.8626,30.2844 59.6506,25.9124 C59.4396,21.5404 54.5236,18.2274 48.6706,18.5104" id="Fill-24"></path>
                        <path d="M48.595,40.6325 C43.023,38.8195 37.408,40.7225 36.053,44.8835 C34.698,49.0455 38.116,53.8905 43.688,55.7035 C49.26,57.5185 54.874,55.6145 56.229,51.4525 C57.585,47.2905 54.166,42.4465 48.595,40.6325" id="Fill-26"></path>
                        <path d="M42.1809,4.5612 C41.2369,1.1852 36.8079,-0.5278 32.2889,0.7352 C27.7699,1.9982 24.8709,5.7592 25.8149,9.1352 C26.7589,12.5112 31.1869,14.2242 35.7059,12.9602 C40.2259,11.6972 43.1239,7.9362 42.1809,4.5612" id="Fill-28"></path>
                        <path d="M29.72,57.6462 C25.693,55.2382 20.97,55.7242 19.171,58.7332 C17.372,61.7412 19.178,66.1322 23.206,68.5412 C27.233,70.9492 31.956,70.4622 33.755,67.4542 C35.554,64.4452 33.748,60.0542 29.72,57.6462" id="Fill-30"></path>
                    </g>
                    <g id="pow_4" transform="translate(159.000000, 332.000000)">
                        <g id="Group-34" transform="translate(16.000000, 19.646000)">
                            <mask id="mask-4" fill="white">
                                <use xlink:href="#path-3"></use>
                            </mask>
                            <g id="Clip-33"></g>
                            <path d="M19.7229,0.4924 C17.1559,1.0144 14.5229,0.9114 11.9399,0.5664 C8.0039,0.0414 4.1059,1.5034 2.8399,5.5324 C2.2169,7.5134 2.4299,9.5804 2.4969,11.6314 C2.5449,13.0814 2.5199,14.5244 2.0759,15.9264 C1.1349,18.8914 -1.0081,21.7624 1.8319,24.4994 C4.8149,27.3754 9.1369,25.5604 12.0999,23.6854 C14.7619,22.0024 16.3399,19.0264 18.6839,16.9394 C20.8279,15.0304 23.6269,13.8304 25.3759,11.5484 C27.0559,9.3554 29.2729,6.1134 28.4769,3.1694 C27.4229,-0.7266 22.7249,-0.1186 19.7229,0.4924" id="Fill-32" fill="#DEECE4" mask="url(#mask-4)"></path>
                        </g>
                        <path d="M11.0354,13.7194 C7.8034,11.1784 3.6434,11.0754 1.7454,13.4904 C-0.1526,15.9054 0.9294,19.9224 4.1614,22.4634 C7.3934,25.0044 11.5534,25.1074 13.4514,22.6924 C15.3494,20.2784 14.2674,16.2604 11.0354,13.7194" id="Fill-35" fill="#DEECE4"></path>
                        <path d="M22.9773,14.2868 C25.6093,12.7038 26.0253,8.5638 23.9073,5.0408 C21.7883,1.5168 17.9363,-0.0562 15.3043,1.5258 C12.6723,3.1088 12.2563,7.2488 14.3743,10.7718 C16.4943,14.2968 20.3453,15.8698 22.9773,14.2868" id="Fill-37" fill="#DEECE4"></path>
                        <path d="M8.4807,31.3669 C5.5037,29.9589 2.2387,30.6189 1.1857,32.8419 C0.1337,35.0649 1.6927,38.0099 4.6697,39.4189 C7.6467,40.8269 10.9117,40.1669 11.9637,37.9429 C13.0167,35.7209 11.4567,32.7759 8.4807,31.3669" id="Fill-39" fill="#DEECE4"></path>
                        <path d="M38.2947,14.7106 C40.6317,13.9426 41.6937,10.7846 40.6667,7.6556 C39.6397,4.5276 36.9117,2.6126 34.5747,3.3806 C32.2377,4.1476 31.1757,7.3066 32.2037,10.4356 C33.2307,13.5636 35.9577,15.4786 38.2947,14.7106" id="Fill-41" fill="#DEECE4"></path>
                    </g>
                    <g id="pow_5" transform="translate(221.000000, 283.000000)" fill="#DEECE4">
                        <path d="M17.3547,17.5163 C16.1817,16.2883 14.6197,15.6263 13.1257,14.8663 C12.0687,14.3283 11.0457,13.7413 10.2187,12.8703 C8.4667,11.0273 7.2587,8.3623 4.1787,9.3153 C0.9447,10.3153 0.5387,14.1233 0.7117,16.9833 C0.8677,19.5523 2.3737,21.8553 2.9427,24.3563 C3.4637,26.6433 3.2187,29.1203 4.1627,31.2713 C5.0687,33.3373 6.5147,36.2033 8.9357,36.7943 C12.1397,37.5773 13.5577,33.9753 14.3037,31.5853 C14.9417,29.5423 16.0547,27.7003 17.3197,25.9873 C19.2477,23.3773 19.7387,20.0103 17.3547,17.5163" id="Fill-43"></path>
                        <path d="M28.633,16.4499 C31.726,15.1379 33.44,12.2029 32.461,9.8919 C31.481,7.5819 28.179,6.7709 25.086,8.0829 C21.993,9.3929 20.279,12.3299 21.258,14.6399 C22.238,16.9509 25.54,17.7619 28.633,16.4499" id="Fill-45"></path>
                        <path d="M29.4245,20.0016 C26.0675,20.1286 23.4225,22.2646 23.5175,24.7726 C23.6125,27.2796 26.4095,29.2106 29.7675,29.0836 C33.1245,28.9566 35.7695,26.8206 35.6745,24.3136 C35.5805,21.8056 32.7815,19.8756 29.4245,20.0016" id="Fill-47"></path>
                        <path d="M17.0115,7.6618 C19.1935,6.0878 20.0085,3.4898 18.8325,1.8598 C17.6565,0.2298 14.9345,0.1848 12.7525,1.7598 C10.5705,3.3348 9.7555,5.9318 10.9315,7.5608 C12.1075,9.1908 14.8295,9.2368 17.0115,7.6618" id="Fill-49"></path>
                        <path d="M22.6355,32.8933 C19.9915,32.3953 17.5465,33.5913 17.1735,35.5673 C16.8015,37.5413 18.6425,39.5473 21.2865,40.0453 C23.9305,40.5443 26.3755,39.3473 26.7485,37.3723 C27.1205,35.3983 25.2795,33.3923 22.6355,32.8933" id="Fill-51"></path>
                    </g>
                    <g id="pow_6" transform="translate(255.000000, 184.000000)" fill="#DEECE4">
                        <path d="M31.1779,32.5905 C31.4049,27.8885 29.2879,23.4285 24.4019,22.3355 C21.9989,21.7975 19.5799,22.2545 17.1629,22.5395 C15.4539,22.7405 13.7469,22.8555 12.0479,22.4705 C8.4489,21.6535 4.8449,19.4085 1.8939,23.0375 C-1.2051,26.8495 1.3689,31.7745 3.8799,35.0875 C6.1359,38.0645 9.8079,39.6315 12.5079,42.1925 C14.9769,44.5345 16.6749,47.7225 19.5459,49.5605 C22.3029,51.3255 26.3549,53.6215 29.7539,52.3875 C34.2519,50.7535 33.0649,45.2635 32.0429,41.7785 C31.1689,38.7975 31.0289,35.6765 31.1779,32.5905" id="Fill-53"></path>
                        <path d="M36.5041,0.9728 C33.4621,-1.0282 28.8231,0.6498 26.1441,4.7228 C23.4651,8.7958 23.7591,13.7198 26.8011,15.7218 C29.8431,17.7228 34.4821,16.0438 37.1611,11.9708 C39.8401,7.8978 39.5461,2.9738 36.5041,0.9728" id="Fill-55"></path>
                        <path d="M40.9758,15.6218 C37.0238,18.4768 35.5498,23.1838 37.6828,26.1368 C39.8158,29.0878 44.7478,29.1658 48.6988,26.3108 C52.6508,23.4558 54.1248,18.7488 51.9918,15.7968 C49.8598,12.8458 44.9278,12.7678 40.9758,15.6218" id="Fill-57"></path>
                        <path d="M8.635,15.487 C11.367,16.508 14.69,14.372 16.057,10.715 C17.424,7.057 16.318,3.265 13.586,2.244 C10.854,1.223 7.531,3.36 6.164,7.016 C4.797,10.674 5.903,14.466 8.635,15.487" id="Fill-59"></path>
                        <path d="M43.1545,36.6511 C39.5615,38.1771 37.5715,41.5901 38.7115,44.2751 C39.8515,46.9591 43.6885,47.8981 47.2825,46.3721 C50.8765,44.8461 52.8655,41.4331 51.7255,38.7491 C50.5855,36.0641 46.7485,35.1261 43.1545,36.6511" id="Fill-61"></path>
                    </g>
                    <g id="pow_7" transform="translate(355.000000, 271.000000)" fill="#DEECE4">
                        <path d="M34.092,20.1647 C31.692,20.2917 29.317,19.8417 27.019,19.1797 C23.519,18.1707 19.783,18.9697 18.09,22.4547 C17.257,24.1687 17.17,26.0717 16.954,27.9417 C16.8,29.2657 16.583,30.5707 15.99,31.7827 C14.735,34.3477 12.402,36.6617 14.609,39.5297 C16.926,42.5427 21.094,41.4807 24.036,40.1817 C26.679,39.0137 28.514,36.5267 30.924,34.9497 C33.128,33.5077 35.831,32.7977 37.726,30.9627 C39.547,29.1997 41.997,26.5587 41.674,23.7787 C41.245,20.1007 36.899,20.0167 34.092,20.1647" id="Fill-63"></path>
                        <path d="M12.5578,10.9997 C9.9678,8.2567 6.2078,7.6017 4.1588,9.5347 C2.1088,11.4697 2.5468,15.2617 5.1368,18.0047 C7.7258,20.7487 11.4868,21.4037 13.5358,19.4697 C15.5848,17.5347 15.1468,13.7427 12.5578,10.9997" id="Fill-65"></path>
                        <path d="M23.3181,13.1305 C25.9211,12.0505 26.8581,8.3505 25.4121,4.8655 C23.9661,1.3815 20.6841,-0.5665 18.0811,0.5135 C15.4791,1.5935 14.5411,5.2935 15.9871,8.7775 C17.4331,12.2625 20.7151,14.2115 23.3181,13.1305" id="Fill-67"></path>
                        <path d="M7.8518,26.6686 C5.3418,24.9876 2.2888,25.1456 1.0328,27.0206 C-0.2232,28.8956 0.7938,31.7776 3.3048,33.4596 C5.8148,35.1406 8.8678,34.9826 10.1228,33.1076 C11.3788,31.2326 10.3618,28.3506 7.8518,26.6686" id="Fill-69"></path>
                        <path d="M37.1604,15.5876 C39.3854,15.2076 40.7764,12.4846 40.2664,9.5076 C39.7584,6.5286 37.5424,4.4236 35.3174,4.8036 C33.0934,5.1836 31.7024,7.9056 32.2114,10.8836 C32.7204,13.8616 34.9354,15.9676 37.1604,15.5876" id="Fill-71"></path>
                    </g>
                    <g id="pow_8" transform="translate(397.000000, 223.000000)" fill="#DEECE4">
                        <path d="M29.9792,27.5094 C28.3642,23.6514 24.9622,20.8824 20.6252,21.8724 C18.4922,22.3604 16.7272,23.6514 14.8972,24.8034 C13.6032,25.6174 12.2772,26.3624 10.7672,26.7024 C7.5692,27.4234 3.8202,26.9994 2.8402,31.0374 C1.8112,35.2794 5.7582,38.2454 9.0382,39.9444 C11.9842,41.4694 15.5292,41.3224 18.6732,42.3454 C21.5482,43.2804 24.1282,45.1894 27.1332,45.5664 C30.0202,45.9284 34.1472,46.2214 36.4012,43.9324 C39.3852,40.9044 36.3352,36.9534 34.1842,34.5484 C32.3442,32.4914 31.0392,30.0414 29.9792,27.5094" id="Fill-73"></path>
                        <path d="M20.0222,15.6511 C23.2272,16.0931 26.3062,12.9741 26.8992,8.6841 C27.4922,4.3931 25.3742,0.5561 22.1692,0.1141 C18.9642,-0.3289 15.8852,2.7901 15.2932,7.0811 C14.7002,11.3711 16.8172,15.2081 20.0222,15.6511" id="Fill-75"></path>
                        <path d="M32.7302,19.8464 C35.5692,21.3994 39.5552,19.5774 41.6332,15.7774 C43.7112,11.9774 43.0952,7.6384 40.2572,6.0854 C37.4182,4.5334 33.4322,6.3554 31.3542,10.1554 C29.2752,13.9544 29.8922,18.2944 32.7302,19.8464" id="Fill-77"></path>
                        <path d="M5.362,22.405 C7.943,22.18 9.792,19.197 9.491,15.741 C9.19,12.286 6.854,9.667 4.272,9.891 C1.691,10.116 -0.158,13.099 0.143,16.555 C0.444,20.01 2.78,22.63 5.362,22.405" id="Fill-79"></path>
                        <path d="M41.1374,26.1901 C38.8384,28.7871 38.5474,32.2851 40.4874,34.0021 C42.4274,35.7201 45.8644,35.0061 48.1634,32.4101 C50.4624,29.8121 50.7534,26.3151 48.8134,24.5971 C46.8734,22.8791 43.4364,23.5921 41.1374,26.1901" id="Fill-81"></path>
                    </g>
                    <g id="pow_9" transform="translate(489.000000, 231.000000)" fill="#DEECE4">
                        <path d="M26.5793,45.9753 C31.7593,42.8253 34.9893,37.3493 32.6303,31.3473 C31.4703,28.3963 29.2363,26.1453 27.1893,23.7723 C25.7413,22.0943 24.3873,20.3553 23.5713,18.2643 C21.8463,13.8373 21.6403,8.3713 15.6403,7.8423 C9.3373,7.2863 5.9413,13.5863 4.2183,18.6553 C2.6703,23.2083 3.6473,28.2583 2.8633,32.9863 C2.1463,37.3103 -0.0287,41.4213 0.0823,45.8113 C0.1883,50.0263 0.6633,56.0043 4.4323,58.7403 C9.4203,62.3603 14.4203,57.1323 17.4013,53.5273 C19.9503,50.4453 23.1793,48.0433 26.5793,45.9753" id="Fill-83"></path>
                        <path d="M52.677,20.4987 C46.399,20.5787 41.358,24.4447 41.417,29.1347 C41.478,33.8237 46.615,37.5607 52.894,37.4807 C59.171,37.4007 64.212,33.5337 64.153,28.8447 C64.093,24.1547 58.954,20.4177 52.677,20.4987" id="Fill-85"></path>
                        <path d="M51.7502,44.1852 C45.8542,42.0302 39.7682,43.8532 38.1582,48.2582 C36.5482,52.6632 40.0222,57.9812 45.9202,60.1362 C51.8162,62.2922 57.9022,60.4682 59.5132,56.0632 C61.1232,51.6592 57.6472,46.3402 51.7502,44.1852" id="Fill-87"></path>
                        <path d="M46.26,5.3122 C45.378,1.6612 40.701,-0.3418 35.814,0.8372 C30.926,2.0182 27.678,5.9342 28.56,9.5852 C29.442,13.2372 34.118,15.2402 39.006,14.0602 C43.894,12.8792 47.142,8.9632 46.26,5.3122" id="Fill-89"></path>
                        <path d="M30.8889,61.6823 C26.6669,58.9503 21.5909,59.2903 19.5499,62.4443 C17.5089,65.5963 19.2759,70.3683 23.4959,73.1003 C27.7169,75.8323 32.7929,75.4933 34.8349,72.3393 C36.8759,69.1873 35.1099,64.4153 30.8889,61.6823" id="Fill-91"></path>
                    </g>
                    <g id="pow_10" transform="translate(536.000000, 201.000000)" fill="#DEECE4">
                        <path d="M26.47,23.82 C25.025,20.503 22.046,18.149 18.305,19.061 C16.465,19.509 14.953,20.649 13.385,21.669 C12.276,22.389 11.138,23.05 9.835,23.364 C7.076,24.028 3.827,23.709 3.03,27.216 C2.193,30.899 5.646,33.417 8.505,34.844 C11.074,36.128 14.14,35.957 16.873,36.801 C19.373,37.575 21.63,39.194 24.236,39.482 C26.738,39.759 30.313,39.961 32.235,37.952 C34.779,35.293 32.09,31.914 30.198,29.859 C28.58,28.102 27.419,25.999 26.47,23.82" id="Fill-93"></path>
                        <path d="M17.7053,13.6843 C20.4833,14.0273 23.1083,11.2883 23.5673,7.5693 C24.0263,3.8483 22.1463,0.5543 19.3673,0.2113 C16.5883,-0.1307 13.9633,2.6073 13.5043,6.3273 C13.0453,10.0473 14.9263,13.3413 17.7053,13.6843" id="Fill-95"></path>
                        <path d="M28.7551,17.155 C31.2311,18.463 34.6571,16.837 36.4081,13.521 C38.1581,10.207 37.5701,6.46 35.0951,5.152 C32.6191,3.844 29.1921,5.471 27.4421,8.786 C25.6911,12.1 26.2781,15.847 28.7551,17.155" id="Fill-97"></path>
                        <path d="M5.1038,19.7136 C7.3338,19.4866 8.8968,16.8816 8.5928,13.8956 C8.2898,10.9076 6.2348,8.6706 4.0028,8.8986 C1.7718,9.1246 0.2098,11.7306 0.5138,14.7166 C0.8178,17.7036 2.8728,19.9406 5.1038,19.7136" id="Fill-99"></path>
                        <path d="M36.1096,22.5388 C34.1526,24.8148 33.9446,27.8458 35.6456,29.3078 C37.3456,30.7688 40.3106,30.1088 42.2676,27.8328 C44.2246,25.5568 44.4326,22.5248 42.7326,21.0628 C41.0316,19.6008 38.0666,20.2628 36.1096,22.5388" id="Fill-101"></path>
                    </g>
                    <g id="pow_11" transform="translate(548.000000, 122.000000)" fill="#DEECE4">
                        <path d="M35.3137,34.5598 C33.7267,29.7428 29.8757,26.0738 24.5377,26.8608 C21.9127,27.2478 19.6557,28.6418 17.3347,29.8608 C15.6937,30.7238 14.0197,31.4978 12.1617,31.7668 C8.2267,32.3358 3.7337,31.4688 2.1677,36.2588 C0.5207,41.2888 5.0127,45.2488 8.8177,47.6128 C12.2357,49.7358 16.5357,49.8948 20.2397,51.4288 C23.6277,52.8318 26.5667,55.3828 30.1647,56.1228 C33.6207,56.8338 38.5827,57.5788 41.5247,55.0248 C45.4187,51.6448 42.1047,46.5808 39.7307,43.4688 C37.7017,40.8078 36.3547,37.7228 35.3137,34.5598" id="Fill-103"></path>
                        <path d="M24.3967,19.2805 C28.2297,20.1195 32.2477,16.6395 33.3707,11.5085 C34.4937,6.3765 32.2957,1.5365 28.4627,0.6975 C24.6297,-0.1405 20.6127,3.3395 19.4897,8.4705 C18.3667,13.6025 20.5637,18.4425 24.3967,19.2805" id="Fill-105"></path>
                        <path d="M39.3645,25.5559 C42.6495,27.7019 47.6415,25.8759 50.5135,21.4779 C53.3865,17.0799 53.0525,11.7759 49.7665,9.6299 C46.4815,7.4849 41.4905,9.3099 38.6175,13.7079 C35.7455,18.1059 36.0795,23.4099 39.3645,25.5559" id="Fill-107"></path>
                        <path d="M6.0325,26.0598 C9.1755,26.0328 11.6925,22.5998 11.6555,18.3928 C11.6185,14.1868 9.0415,10.7988 5.8995,10.8268 C2.7575,10.8538 0.2395,14.2868 0.2765,18.4928 C0.3125,22.6998 2.8895,26.0868 6.0325,26.0598" id="Fill-109"></path>
                        <path d="M56.8352,42.2058 C59.8602,39.2828 60.5442,35.0808 58.3602,32.8218 C56.1782,30.5608 51.9552,31.0978 48.9292,34.0208 C45.9032,36.9428 45.2212,41.1448 47.4032,43.4048 C49.5872,45.6648 53.8102,45.1278 56.8352,42.2058" id="Fill-111"></path>
                    </g>
                    <g id="pow_12" transform="translate(595.000000, 167.000000)" fill="#DEECE4">
                        <path d="M32.3889,18.3781 C30.0129,18.8331 27.5819,18.7081 25.2009,18.3611 C21.5719,17.8331 17.9549,19.1411 16.7419,22.8481 C16.1449,24.6701 16.3189,26.5811 16.3589,28.4761 C16.3869,29.8161 16.3479,31.1491 15.9219,32.4371 C15.0199,35.1671 13.0089,37.7941 15.6029,40.3531 C18.3259,43.0421 22.3369,41.4131 25.0939,39.7141 C27.5709,38.1881 29.0609,35.4591 31.2479,33.5561 C33.2499,31.8171 35.8489,30.7401 37.4889,28.6511 C39.0639,26.6441 41.1469,23.6741 40.4439,20.9471 C39.5139,17.3371 35.1679,17.8471 32.3889,18.3781" id="Fill-113"></path>
                        <path d="M9.6604,12.1789 C6.7034,9.7969 2.8624,9.6569 1.0834,11.8659 C-0.6956,14.0749 0.2594,17.7969 3.2164,20.1789 C6.1734,22.5609 10.0134,22.7019 11.7934,20.4919 C13.5724,18.2829 12.6174,14.5609 9.6604,12.1789" id="Fill-115"></path>
                        <path d="M20.6829,12.8347 C23.1309,11.4017 23.5609,7.5837 21.6429,4.3057 C19.7249,1.0277 16.1849,-0.4673 13.7369,0.9657 C11.2879,2.3977 10.8589,6.2167 12.7769,9.4947 C14.6949,12.7727 18.2349,14.2677 20.6829,12.8347" id="Fill-117"></path>
                        <path d="M7.1067,28.4489 C4.3737,27.1149 1.3497,27.6889 0.3537,29.7309 C-0.6423,31.7719 0.7657,34.5089 3.4997,35.8429 C6.2317,37.1769 9.2547,36.6019 10.2527,34.5609 C11.2487,32.5189 9.8397,29.7829 7.1067,28.4489" id="Fill-119"></path>
                        <path d="M34.8245,13.3942 C36.9905,12.7112 38.0065,9.8062 37.0925,6.9052 C36.1785,4.0052 33.6795,2.2072 31.5125,2.8902 C29.3465,3.5732 28.3315,6.4782 29.2455,9.3782 C30.1595,12.2792 32.6575,14.0772 34.8245,13.3942" id="Fill-121"></path>
                    </g>
                    <g id="pow_13" transform="translate(624.000000, 0.000000)">
                        <path d="M36.9954,49.6833 C37.3754,53.3913 39.1914,56.6453 40.7584,59.9773 C41.8654,62.3353 42.8494,64.7313 43.1094,67.3553 C43.6634,72.9123 42.1674,79.1633 48.7914,81.6613 C55.7484,84.2843 61.5854,78.2263 65.1394,73.0353 C68.3314,68.3703 68.8214,62.3473 71.2044,57.2433 C73.3844,52.5763 77.1464,48.6113 78.4094,43.6083 C79.6224,38.8033 80.9754,31.8863 77.5754,27.5983 C73.0744,21.9233 65.7624,26.2583 61.2464,29.3963 C57.3874,32.0783 52.9744,33.7763 48.4714,35.0403 C41.6114,36.9683 36.2234,42.1443 36.9954,49.6833" id="Fill-123" fill="#DEECE4"></path>
                        <path d="M10.8752,55.6227 C18.0062,57.5177 24.9342,54.7357 26.3502,49.4087 C27.7652,44.0817 23.1322,38.2277 16.0012,36.3327 C8.8702,34.4377 1.9412,37.2197 0.5262,42.5467 C-0.8898,47.8727 3.7442,53.7277 10.8752,55.6227" id="Fill-125" fill="#DEECE4"></path>
                        <path d="M19.4153,29.1061 C25.4073,33.4111 32.8723,33.2721 36.0883,28.7951 C39.3033,24.3181 37.0523,17.2001 31.0593,12.8961 C25.0663,8.5911 17.6023,8.7301 14.3873,13.2071 C11.1713,17.6831 13.4223,24.8011 19.4153,29.1061" id="Fill-127" fill="#DEECE4"></path>
                        <path d="M34.72,75.6013 C34.877,71.1903 30.217,67.4433 24.312,67.2333 C18.407,67.0233 13.491,70.4293 13.334,74.8403 C13.178,79.2513 17.837,82.9973 23.742,83.2083 C29.648,83.4183 34.563,80.0133 34.72,75.6013" id="Fill-129" fill="#DEECE4"></path>
                        <g id="Group-133" transform="translate(45.000000, 0.646000)">
                            <mask id="mask-6" fill="white">
                                <use xlink:href="#path-5"></use>
                            </mask>
                            <g id="Clip-132"></g>
                            <path d="M16.635,17.9792 C19.943,15.0562 19.452,9.0972 15.539,4.6692 C11.626,0.2412 5.773,-0.9788 2.465,1.9442 C-0.843,4.8672 -0.351,10.8262 3.562,15.2542 C7.475,19.6822 13.327,20.9022 16.635,17.9792" id="Fill-131" fill="#DEECE4" mask="url(#mask-6)"></path>
                        </g>
                    </g>
                    <g id="pow_14" transform="translate(654.000000, 147.000000)" fill="#DEECE4">
                        <path d="M35.842,25.5646 C30.875,27.1396 27.063,31.0536 27.811,36.5456 C28.178,39.2466 29.584,41.5806 30.811,43.9786 C31.677,45.6746 32.454,47.4016 32.709,49.3146 C33.248,53.3616 32.307,57.9676 37.209,59.6316 C42.358,61.3796 46.477,56.8106 48.947,52.9296 C51.167,49.4426 51.38,45.0276 52.997,41.2396 C54.477,37.7756 57.131,34.7866 57.932,31.0986 C58.701,27.5576 59.524,22.4686 56.934,19.4176 C53.506,15.3786 48.267,18.7256 45.042,21.1276 C42.286,23.1826 39.103,24.5306 35.842,25.5646" id="Fill-134"></path>
                        <path d="M20.0227,36.6032 C20.9277,32.6752 17.3997,28.5092 12.1407,27.2972 C6.8827,26.0852 1.8867,28.2872 0.9817,32.2152 C0.0767,36.1432 3.6047,40.3092 8.8637,41.5212 C14.1217,42.7322 19.1177,40.5312 20.0227,36.6032" id="Fill-136"></path>
                        <path d="M10.3997,10.4338 C8.1577,13.7838 9.9757,18.9318 14.4617,21.9328 C18.9457,24.9338 24.3977,24.6498 26.6387,21.3008 C28.8807,17.9508 27.0627,12.8018 22.5777,9.8018 C18.0927,6.8008 12.6407,7.0838 10.3997,10.4338" id="Fill-138"></path>
                        <path d="M26.7766,55.5446 C26.7846,52.3156 23.2876,49.6906 18.9656,49.6816 C14.6446,49.6706 11.1346,52.2786 11.1286,55.5076 C11.1206,58.7346 14.6176,61.3596 18.9386,61.3706 C23.2596,61.3806 26.7686,58.7726 26.7766,55.5446" id="Fill-140"></path>
                        <path d="M45.0647,13.2463 C47.4117,11.0293 46.9087,6.6863 43.9407,3.5443 C40.9727,0.4033 36.6657,-0.3457 34.3187,1.8713 C31.9717,4.0873 32.4757,8.4313 35.4437,11.5723 C38.4107,14.7133 42.7187,15.4633 45.0647,13.2463" id="Fill-142"></path>
                    </g>
                    <g id="pow_15" transform="translate(679.000000, 209.000000)" fill="#DEECE4">
                        <path d="M33.3655,35.3102 C32.8895,30.3122 29.9765,25.9262 24.6525,25.5162 C22.0335,25.3152 19.5495,26.1652 17.0425,26.8332 C15.2685,27.3062 13.4835,27.6872 11.6315,27.5392 C7.7085,27.2262 3.5615,25.4052 0.9995,29.6842 C-1.6925,34.1792 1.7755,38.9872 4.9295,42.1022 C7.7635,44.9002 11.8795,45.9972 15.1185,48.2892 C18.0825,50.3852 20.3595,53.4922 23.6705,54.9952 C26.8495,56.4392 31.4755,58.2462 34.8755,56.4252 C39.3755,54.0162 37.2865,48.4022 35.6775,44.8772 C34.3025,41.8652 33.6775,38.5912 33.3655,35.3102" id="Fill-144"></path>
                        <path d="M23.8108,6.6599 C21.6018,11.3669 22.6628,16.5189 26.1778,18.1699 C29.6948,19.8189 34.3348,17.3409 36.5428,12.6339 C38.7518,7.9269 37.6918,2.7739 34.1758,1.1239 C30.6598,-0.5261 26.0188,1.9529 23.8108,6.6599" id="Fill-146"></path>
                        <path d="M50.9055,26.0153 C54.6425,22.4003 55.4825,17.2063 52.7815,14.4143 C50.0815,11.6233 44.8625,12.2913 41.1265,15.9083 C37.3885,19.5233 36.5495,24.7163 39.2505,27.5073 C41.9505,30.2983 47.1695,29.6303 50.9055,26.0153" id="Fill-148"></path>
                        <path d="M10.177,5.9538 C7.138,5.2918 3.955,8.0538 3.069,12.1218 C2.182,16.1898 3.927,20.0248 6.966,20.6868 C10.005,21.3498 13.188,18.5888 14.073,14.5198 C14.96,10.4518 13.216,6.6168 10.177,5.9538" id="Fill-150"></path>
                        <path d="M46.6272,37.7741 C43.0652,39.9321 41.4852,43.8371 43.0972,46.4981 C44.7092,49.1581 48.9022,49.5661 52.4642,47.4081 C56.0242,45.2501 57.6062,41.3441 55.9932,38.6841 C54.3822,36.0241 50.1882,35.6171 46.6272,37.7741" id="Fill-152"></path>
                    </g>
                    <g id="pow_16" transform="translate(813.000000, 123.000000)" fill="#DEECE4">
                        <path d="M8.0129,29.3947 C9.6009,31.3027 10.5579,33.7567 12.4799,35.3337 C14.3259,36.8487 17.0649,38.8577 19.6319,38.2557 C23.0299,37.4577 22.6399,33.3787 22.1989,30.7667 C21.8209,28.5337 21.9869,26.2607 22.3589,24.0377 C22.9259,20.6517 21.7749,17.2397 18.3279,16.0297 C16.6339,15.4347 14.8429,15.5597 13.0689,15.5587 C11.8129,15.5577 10.5669,15.4947 9.3679,15.0697 C6.8319,14.1707 4.4129,12.2357 1.9649,14.6117 C-0.6051,17.1067 0.8379,20.8947 2.3719,23.5097 C3.7509,25.8587 6.2769,27.3087 8.0129,29.3947" id="Fill-154"></path>
                        <path d="M28.4583,9.6154 C30.7473,6.8944 30.9563,3.3034 28.9243,1.5934 C26.8923,-0.1176 23.3883,0.7014 21.0993,3.4224 C18.8103,6.1424 18.6013,9.7344 20.6333,11.4444 C22.6653,13.1554 26.1683,12.3354 28.4583,9.6154" id="Fill-156"></path>
                        <path d="M27.6233,19.9201 C28.9153,22.2411 32.4803,22.7201 35.5873,20.9901 C38.6933,19.2601 40.1643,15.9771 38.8723,13.6561 C37.5803,11.3361 34.0153,10.8571 30.9083,12.5871 C27.8023,14.3161 26.3313,17.6001 27.6233,19.9201" id="Fill-158"></path>
                        <path d="M7.4944,9.7194 C9.3864,10.6934 11.9754,9.4304 13.2794,6.8984 C14.5824,4.3664 14.1054,1.5254 12.2154,0.5514 C10.3234,-0.4226 7.7334,0.8414 6.4314,3.3724 C5.1274,5.9044 5.6034,8.7464 7.4944,9.7194" id="Fill-160"></path>
                        <path d="M30.6858,28.0051 C27.9528,28.8021 26.2188,31.1051 26.8148,33.1461 C27.4118,35.1881 30.1098,36.1971 32.8428,35.4001 C35.5778,34.6021 37.3098,32.3001 36.7138,30.2581 C36.1188,28.2161 33.4188,27.2071 30.6858,28.0051" id="Fill-162"></path>
                    </g>
                    <g id="pow_17" transform="translate(818.000000, 175.000000)" fill="#DEECE4">
                        <path d="M31.9299,24.8249 C32.3999,22.3289 31.8419,19.8509 31.4629,17.3699 C31.1949,15.6159 31.0159,13.8589 31.3539,12.0939 C32.0669,8.3559 34.2539,4.5599 30.4089,1.6469 C26.3689,-1.4131 21.3839,1.4159 18.0569,4.1209 C15.0689,6.5519 13.5829,10.3929 11.0379,13.2669 C8.7109,15.8949 5.4859,17.7589 3.6929,20.7829 C1.9699,23.6879 -0.2531,27.9459 1.1399,31.4059 C2.9839,35.9849 8.6009,34.5669 12.1589,33.3899 C15.1999,32.3849 18.4109,32.1289 21.5989,32.1739 C26.4529,32.2409 30.9759,29.9009 31.9299,24.8249" id="Fill-164"></path>
                        <path d="M54.3801,36.5436 C56.3361,33.3366 54.4411,28.6146 50.1481,25.9966 C45.8551,23.3796 40.7891,23.8566 38.8331,27.0646 C36.8781,30.2716 38.7731,34.9926 43.0671,37.6106 C47.3591,40.2286 52.4251,39.7506 54.3801,36.5436" id="Fill-166"></path>
                        <path d="M28.4827,38.6501 C25.5147,40.9531 25.6087,46.0411 28.6917,50.0121 C31.7757,53.9851 36.6797,55.3371 39.6477,53.0351 C42.6147,50.7321 42.5207,45.6451 39.4377,41.6721 C36.3537,37.7001 31.4497,36.3471 28.4827,38.6501" id="Fill-168"></path>
                        <path d="M43.6135,15.8102 C47.4315,17.0902 51.3015,15.8162 52.2585,12.9632 C53.2145,10.1112 50.8935,6.7612 47.0755,5.4812 C43.2575,4.2022 39.3865,5.4772 38.4305,8.3292 C37.4745,11.1812 39.7955,14.5302 43.6135,15.8102" id="Fill-170"></path>
                        <path d="M9.8206,40.3532 C7.0926,41.6242 6.2606,45.6122 7.9626,49.2622 C9.6626,52.9142 13.2516,54.8432 15.9776,53.5732 C18.7046,52.3022 19.5366,48.3142 17.8366,44.6642 C16.1356,41.0132 12.5476,39.0832 9.8206,40.3532" id="Fill-172"></path>
                    </g>
                    <g id="pow_18" transform="translate(888.000000, 184.000000)" fill="#DEECE4">
                        <path d="M3.9299,36.9655 C4.7809,40.4875 4.4519,44.3185 5.9539,47.6215 C7.3969,50.7945 9.6889,55.1905 13.4389,56.0535 C18.4039,57.1965 20.5199,51.6055 21.6239,47.8995 C22.5679,44.7315 24.2479,41.8615 26.1669,39.1905 C29.0909,35.1205 29.7809,29.9105 26.0479,26.1075 C24.2109,24.2365 21.7849,23.2445 19.4619,22.1005 C17.8189,21.2915 16.2269,20.4055 14.9309,19.0775 C12.1879,16.2675 10.2669,12.1755 5.5309,13.7095 C0.5559,15.3215 0.0069,21.2125 0.3319,25.6245 C0.6249,29.5895 2.9989,33.1155 3.9299,36.9655" id="Fill-174"></path>
                        <path d="M43.4446,24.2292 C48.1956,22.1412 50.7826,17.5722 49.2216,14.0232 C47.6626,10.4742 42.5466,9.2912 37.7966,11.3782 C33.0456,13.4672 30.4586,18.0372 32.0186,21.5852 C33.5786,25.1342 38.6946,26.3182 43.4446,24.2292" id="Fill-176"></path>
                        <path d="M44.7405,29.6989 C39.5575,29.9639 35.5165,33.3159 35.7145,37.1879 C35.9115,41.0589 40.2725,43.9829 45.4555,43.7189 C50.6375,43.4539 54.6795,40.1009 54.4815,36.2299 C54.2845,32.3589 49.9235,29.4349 44.7405,29.6989" id="Fill-178"></path>
                        <path d="M25.3157,10.8952 C28.6537,8.4182 29.8597,4.3902 28.0097,1.8972 C26.1607,-0.5958 21.9557,-0.6098 18.6177,1.8662 C15.2797,4.3422 14.0737,8.3712 15.9227,10.8642 C17.7727,13.3572 21.9777,13.3712 25.3157,10.8952" id="Fill-180"></path>
                        <path d="M34.5188,49.7487 C30.4248,49.0327 26.6718,50.9317 26.1378,53.9887 C25.6028,57.0477 28.4878,60.1067 32.5818,60.8227 C36.6748,61.5387 40.4268,59.6407 40.9618,56.5827 C41.4978,53.5247 38.6128,50.4657 34.5188,49.7487" id="Fill-182"></path>
                    </g>
                    <g id="pow_19" transform="translate(867.000000, 301.000000)" fill="#DEECE4">
                        <path d="M30.5364,32.361 C30.4244,27.76 28.0444,23.561 23.2024,22.841 C20.8204,22.488 18.4944,23.105 16.1584,23.554 C14.5064,23.872 12.8494,24.104 11.1644,23.849 C7.5984,23.308 3.9244,21.375 1.3044,25.122 C-1.4476,29.058 1.4114,33.678 4.0944,36.731 C6.5044,39.473 10.1964,40.742 13.0114,43.048 C15.5844,45.157 17.4664,48.145 20.3954,49.733 C23.2104,51.259 27.3234,53.211 30.5504,51.766 C34.8204,49.855 33.2734,44.586 32.0304,41.259 C30.9674,38.415 30.6094,35.382 30.5364,32.361" id="Fill-184"></path>
                        <path d="M33.4895,1.154 C30.3815,-0.582 25.9765,1.383 23.6525,5.545 C21.3295,9.706 21.9655,14.486 25.0725,16.222 C28.1805,17.959 32.5855,15.993 34.9095,11.832 C37.2335,7.671 36.5975,2.889 33.4895,1.154" id="Fill-186"></path>
                        <path d="M47.176,24.9968 C50.827,21.9338 51.931,17.2378 49.642,14.5118 C47.354,11.7838 42.538,12.0578 38.888,15.1218 C35.237,18.1848 34.133,22.8798 36.421,25.6068 C38.71,28.3348 43.526,28.0608 47.176,24.9968" id="Fill-188"></path>
                        <path d="M7.342,17.2809 C10.078,18.0839 13.167,15.7639 14.241,12.1009 C15.315,8.4389 13.968,4.8189 11.232,4.0169 C8.495,3.2149 5.406,5.5339 4.333,9.1959 C3.259,12.8589 4.607,16.4789 7.342,17.2809" id="Fill-190"></path>
                        <path d="M42.5022,35.4724 C39.1062,37.2154 37.4082,40.6844 38.7102,43.2214 C40.0122,45.7584 43.8202,46.4024 47.2162,44.6594 C50.6122,42.9164 52.3102,39.4484 51.0082,36.9104 C49.7062,34.3734 45.8982,33.7304 42.5022,35.4724" id="Fill-192"></path>
                    </g>
                </g>
            </g>
        </g>
    </g>
</svg>