<svg width="714" height="320" viewBox="0 0 714 320" fill="none" xmlns="http://www.w3.org/2000/svg">
<path fill-rule="evenodd" clip-rule="evenodd" d="M708.172 117.178C708.885 105.508 699.911 104.717 690.856 88.9943C687.257 82.7429 683.61 78.4276 679.519 74.9778C677.082 60.3063 672.335 44.5726 665.631 41.6428C659.279 38.8676 655.033 56.515 654.123 60.6854C617.571 43.4743 593.878 51.3746 566.795 40.4845C539.155 29.37 537.564 28.4166 517.552 27.4646C497.536 26.5126 486.095 26.8304 452.101 15.079C427.024 6.41207 412.07 3.96588 394.915 5.55486C374.965 7.39752 328.197 1.10712 302.463 0.150945C276.73 -0.799654 257.032 2.37691 231.618 20.1609C206.2 37.9449 189.361 48.4252 175.063 83.9946C160.769 119.56 148.376 164.022 127.406 190.697C106.44 217.375 67.0462 216.105 54.3362 212.929C26.1524 205.887 46.0771 182.759 27.0127 164.022C15.3095 152.52 3.82232 165.292 0.959595 174.502C-1.31608 181.837 -3.48857 231.984 44.1709 241.826C91.8234 251.669 137.257 229.442 155.047 204.036C172.839 178.631 192.539 124.006 192.539 124.006C192.539 124.006 195.952 140.444 193.568 159.496C191.185 178.551 185.943 194.749 180.229 204.516C174.506 214.281 163.129 216.262 156.873 233.095C153.778 241.429 153.3 244.529 146.866 255.246C140.434 265.966 141.148 265.488 141.148 280.254C141.148 295.021 143.768 313.599 152.825 317.65C161.877 321.697 177.128 320.269 179.509 315.266C181.895 310.265 181.895 307.645 177.845 302.645C173.792 297.641 167.123 293.592 169.502 283.591C171.888 273.586 175.46 266.678 182.848 257.627C190.234 248.576 235.031 218.089 246.706 204.753C246.706 204.753 241.463 223.568 238.843 234.524C236.223 245.479 242.284 263.943 247.897 272.633C255.283 284.066 264.577 297.641 276.251 302.645C287.928 307.645 307.707 306.693 313.663 302.645C319.621 298.594 319.141 294.308 315.566 285.972C311.994 277.634 298.652 280.969 291.264 277.634C283.878 274.3 277.918 260.727 277.918 256.439C277.918 252.149 288.862 231.797 290.549 220.949C292.215 210.228 312.742 159.39 317.238 141.87C319.621 132.584 339.634 139.252 351.072 142.586C362.509 145.92 380.618 165.929 413.978 172.595C423.005 174.4 424.462 174.502 423.032 180.218C423.032 180.218 419.482 190.57 417.779 204.173C416.079 217.779 413.406 244.257 411.708 253.491C410.002 262.724 403.44 278.271 405.872 290.174C408.304 302.078 426.288 304.51 433.822 305.48C441.356 306.45 461.283 306.21 460.311 296.734C459.341 287.258 452.536 286.531 448.403 284.098C444.273 281.67 436.495 278.03 439.897 269.767C443.297 261.507 459.582 226.283 464.687 215.351C469.79 204.415 473.191 193.971 479.426 194.511C502.1 196.468 514.053 186.571 532.8 186.571C551.54 186.571 547.413 196.733 553.766 204.355C560.122 211.974 566.158 236.747 580.455 250.086C594.748 263.425 612.86 284.381 621.756 295.5C630.652 306.613 630.97 313.761 646.537 315.032C662.106 316.3 677.514 313.359 682.756 312.329C686.809 311.536 691.653 301.853 681.803 295.179C668.07 285.884 661.788 293.911 657.341 291.691C652.894 289.465 647.172 282.798 640.5 265.966C633.829 249.133 631.605 242.147 626.204 225.316C620.802 208.483 616.357 197.683 617.309 183.396C618.262 169.105 618.578 152.907 618.578 152.907C625.25 155.128 629.222 152.907 639.706 156.246C650.189 159.578 650.825 161.799 657.5 174.025C664.17 186.252 675.29 190.697 680.212 186.252C685.135 181.807 685.298 175.612 687.52 176.25C690.758 177.177 698.165 178.946 702.134 172.915C705.611 167.633 709.079 171.055 711.824 166.404C715.955 159.414 713.572 156.718 709.922 144.731C707.371 136.371 707.455 128.85 708.172 117.178Z" fill="url(#paint0_linear)"/>
<defs>
<linearGradient id="paint0_linear" x1="44.673" y1="-16.6806" x2="44.673" y2="267.3" gradientUnits="userSpaceOnUse">
<stop stop-color="#0D3422"/>
<stop offset="1" stop-color="#0A7543"/>
</linearGradient>
</defs>
</svg>
