<svg width="40" height="43" viewBox="0 0 40 43" fill="none" xmlns="http://www.w3.org/2000/svg">
<path fill-rule="evenodd" clip-rule="evenodd" d="M14.7456 0C12.1285 0 10.0071 2.93333 10.0071 6.55048C10.0071 10.1676 12.1285 13.0995 14.7456 13.0995C17.3628 13.0995 19.4847 10.1676 19.4847 6.55048C19.4847 2.93333 17.3628 0 14.7456 0ZM28.5423 0.892381C25.9276 0.225238 23.0785 2.55381 22.1795 6.09286C21.2771 9.6319 22.6666 13.0414 25.2814 13.7086C27.8956 14.3752 30.7461 12.0476 31.6456 8.5081C32.8166 3.9019 29.1685 1.05143 28.5423 0.892381ZM10.0061 15.9943C10.2609 19.6371 8.2866 22.7433 5.5947 22.9324C2.90374 23.1214 0.515172 20.3214 0.26041 16.6776C0.00564784 13.0348 1.97993 9.92809 4.67184 9.73905C7.36327 9.55048 9.75184 12.351 10.0061 15.9943ZM29.8004 19.53C29.7399 15.4781 31.9228 12.8624 34.6728 12.8214C35.3314 12.8119 39.6814 14.1076 39.7614 19.381C39.8209 23.4338 37.6371 25.3467 34.8885 25.3876C32.1356 25.4286 29.8609 23.5814 29.8004 19.53ZM7.5866 27.411C10.9137 24.6338 12.628 22.5143 14.1399 20.3429C15.6528 18.1729 17.619 17.5167 19.4842 17.5171C21.3495 17.5171 23.1314 17.7933 24.6766 19.94C27.6762 24.1063 29.6361 25.8264 31.8704 27.7874C31.9644 27.8699 32.0588 27.9527 32.1537 28.0362C35.8295 31.2624 36.6256 32.8624 36.6256 35.6895C36.6256 38.5162 34.7099 42.8576 30.1218 42.8576C27.6945 42.8576 25.8738 42.4617 24.1594 42.0888C22.6342 41.7572 21.1932 41.4438 19.4842 41.4438C17.7753 41.4438 16.3794 41.6676 14.9018 41.9046C13.2407 42.1709 11.4764 42.4538 9.0485 42.4538C4.46089 42.4538 2.84755 37.759 2.84755 34.9324C2.84755 32.1052 4.25898 30.1881 7.5866 27.411Z" fill="white"/>
</svg>
