<svg width="80" height="55" viewBox="0 0 80 55" fill="none" xmlns="http://www.w3.org/2000/svg">
<path fill-rule="evenodd" clip-rule="evenodd" d="M9.94366 34.4209C10.2528 34.4209 10.4888 34.338 10.651 34.1722C10.8133 34.0071 10.8944 33.7828 10.8944 33.5C10.8944 33.2129 10.8096 32.9905 10.64 32.8345C10.4703 32.6791 10.238 32.601 9.94366 32.601H9.54543V34.4209H9.94366ZM8.04896 32.5937C7.73983 32.5937 7.50384 32.6766 7.3416 32.8424C7.17935 33.0082 7.09823 33.2318 7.09823 33.5146C7.09823 33.8023 7.18304 34.0241 7.35266 34.1795C7.52228 34.3356 7.75397 34.4136 8.04896 34.4136H8.4472V32.5937H8.04896ZM9.54543 31.6509H9.98054C10.2749 31.6509 10.5466 31.6911 10.7948 31.7716C11.0431 31.852 11.257 31.9709 11.4364 32.1293C11.6153 32.2878 11.7542 32.4816 11.8519 32.7108C11.9508 32.9393 12 33.2008 12 33.4927C12 33.7901 11.9459 34.054 11.8378 34.2856C11.7296 34.5172 11.5833 34.7134 11.399 34.8743C11.2146 35.0352 11.0001 35.1571 10.7543 35.24C10.5085 35.3223 10.2503 35.3637 9.98054 35.3637H9.54543V36H8.4472V35.3637H8.01209C7.71771 35.3637 7.44607 35.3235 7.19779 35.2437C6.9495 35.1632 6.73686 35.0431 6.56048 34.8853C6.38349 34.7268 6.24583 34.533 6.1475 34.3045C6.04917 34.0753 6 33.8145 6 33.5219C6 33.2245 6.05408 32.9606 6.16225 32.729C6.26979 32.4974 6.41668 32.3012 6.60104 32.1403C6.7848 31.98 6.99867 31.8575 7.24204 31.7752C7.4854 31.6917 7.74229 31.6509 8.01209 31.6509H8.4472V31H9.54543V31.6509Z" fill="#3C3C3B"/>
<path fill-rule="evenodd" clip-rule="evenodd" d="M14.8885 32.0816C14.7079 32.1628 14.5555 32.2727 14.4312 32.4113C14.3075 32.5498 14.2125 32.7123 14.1462 32.898C14.0806 33.0843 14.0477 33.285 14.0477 33.5C14.0477 33.7144 14.0806 33.9163 14.1462 34.105C14.2125 34.2937 14.3086 34.4574 14.4353 34.5959C14.5613 34.7339 14.7138 34.8432 14.892 34.9214C15.0702 35.0002 15.2713 35.0397 15.4965 35.0397C15.7263 35.0397 15.9309 34.999 16.1121 34.9184C16.2927 34.8372 16.4445 34.7261 16.5688 34.5852C16.6931 34.4442 16.7869 34.2806 16.8503 34.0942C16.9136 33.9085 16.9452 33.7102 16.9452 33.5C16.9452 33.2802 16.9124 33.076 16.8467 32.8872C16.7811 32.6991 16.6861 32.5355 16.5618 32.3969C16.4381 32.2584 16.2856 32.1509 16.1045 32.0744C15.9245 31.998 15.7216 31.9597 15.4965 31.9597C15.2713 31.9597 15.0691 32.0004 14.8885 32.0816ZM16.5161 31.1899C16.8256 31.3165 17.0895 31.4921 17.3076 31.7167C17.5251 31.9406 17.6951 32.2046 17.8171 32.508C17.939 32.8108 18 33.1417 18 33.5C18 33.844 17.939 34.1671 17.8171 34.4705C17.6951 34.7739 17.5239 35.0385 17.3035 35.2654C17.0836 35.4924 16.8198 35.6715 16.5131 35.8023C16.2053 35.9343 15.867 36 15.4965 36C15.1306 36 14.7958 35.9367 14.491 35.8101C14.1867 35.6835 13.9228 35.5079 13.7 35.2833C13.4773 35.0588 13.3049 34.7942 13.1835 34.4884C13.0616 34.1826 13 33.853 13 33.5C13 33.156 13.0616 32.8311 13.1835 32.5259C13.3049 32.2201 13.4773 31.955 13.7 31.731C13.9228 31.5065 14.1867 31.3285 14.491 31.1971C14.7958 31.0657 15.1306 31 15.4965 31C15.867 31 16.2071 31.0633 16.5161 31.1899Z" fill="#3C3C3B"/>
<path fill-rule="evenodd" clip-rule="evenodd" d="M20.2689 32.955H22.7318V31H24V36H22.7318V33.9922H20.2689V36H19V31H20.2689V32.955Z" fill="#3C3C3B"/>
<path fill-rule="evenodd" clip-rule="evenodd" d="M27.2612 33.7925C27.1709 34.2915 27.0503 34.6813 26.8974 34.9629H29.0472V31.992H27.4036C27.3976 32.6936 27.3508 33.2934 27.2612 33.7925ZM30.2329 34.9629H31V35.2668L30.8972 37H29.8295L29.7821 35.9629H26.2021L26.1388 37H25.0633L25 35.2742V34.9704H25.2214C25.3322 34.9704 25.4429 34.9333 25.5536 34.8592C25.6643 34.7851 25.7566 34.6689 25.8304 34.5114C25.9728 34.2149 26.0749 33.832 26.1388 33.3632C26.2021 32.8938 26.2331 32.3755 26.2331 31.8073V31H30.2329V34.9629Z" fill="#3C3C3B"/>
<path fill-rule="evenodd" clip-rule="evenodd" d="M10 45H8.9687V41.0372H7.03017V45H6V40H10V45Z" fill="#3C3C3B"/>
<path fill-rule="evenodd" clip-rule="evenodd" d="M14.0251 42.6419C14.3078 42.6419 14.5297 42.5672 14.6903 42.4185C14.8502 42.2685 14.9311 42.0676 14.9311 41.8137C14.9311 41.5655 14.8591 41.367 14.7151 41.2201C14.571 41.0733 14.3556 41.0005 14.067 41.0005H13.0618V42.6419H14.0251ZM14.8815 40.1307C15.1129 40.2178 15.3124 40.3397 15.4794 40.4971C15.647 40.6539 15.7757 40.8425 15.8654 41.0633C15.9551 41.2848 16 41.5325 16 41.8062C16 42.0949 15.9492 42.3519 15.8477 42.5784C15.7462 42.8055 15.6069 42.9965 15.4298 43.1533C15.2528 43.3101 15.0444 43.4302 14.8036 43.5111C14.5628 43.5932 14.3037 43.6349 14.0251 43.6349H13.0618V45H12V40H14.1101C14.3928 40 14.6501 40.0436 14.8815 40.1307Z" fill="#3C3C3B"/>
<path fill-rule="evenodd" clip-rule="evenodd" d="M20.8687 41.0073H18.1434V41.9475H20.5751V42.9256H18.1434V43.992H21V45H17V40H20.8687V41.0073Z" fill="#3C3C3B"/>
<path fill-rule="evenodd" clip-rule="evenodd" d="M25.5976 41.848C25.6897 41.7668 25.7358 41.6551 25.7358 41.5124C25.7358 41.3308 25.6747 41.1928 25.5526 41.0996C25.4305 41.0065 25.2312 40.9605 24.9554 40.9605C24.5222 40.9605 24.1174 41.111 23.7389 41.412L23.2004 40.6732C23.4585 40.4438 23.7361 40.2748 24.0327 40.1655C24.3299 40.055 24.6582 40 25.017 40C25.294 40 25.54 40.0334 25.7559 40.1003C25.9725 40.1678 26.1574 40.261 26.3089 40.3799C26.4609 40.4987 26.5772 40.6409 26.6579 40.8058C26.7379 40.9706 26.7788 41.1534 26.7788 41.3541C26.7788 41.5601 26.7379 41.7441 26.6579 41.9096C26.5772 42.0738 26.4563 42.2046 26.295 42.2996V42.3641C26.5162 42.4406 26.689 42.5702 26.8128 42.7553C26.9372 42.9381 27 43.1639 27 43.4315C27 43.6555 26.9568 43.8639 26.8721 44.0545C26.7863 44.2462 26.6602 44.4105 26.492 44.5484C26.3238 44.687 26.1142 44.7969 25.8636 44.8782C25.612 44.9594 25.3194 45 24.983 45C24.7803 45 24.5891 44.9869 24.4094 44.9606C24.2297 44.9343 24.0592 44.8931 23.8985 44.8351C23.7372 44.7778 23.5829 44.7055 23.4354 44.6177C23.288 44.5287 23.1428 44.4206 23 44.291L23.5454 43.5032C23.7856 43.6997 24.024 43.8377 24.2608 43.9183C24.4981 44.0001 24.7618 44.0401 25.0521 44.0401C25.3557 44.0401 25.5826 43.9816 25.7317 43.8645C25.8815 43.7487 25.9569 43.5934 25.9569 43.4034C25.9569 43.0683 25.7473 42.9017 25.328 42.9017H24.1605V41.9699H25.2174C25.3787 41.9699 25.5054 41.9299 25.5976 41.848Z" fill="#3C3C3B"/>
<path fill-rule="evenodd" clip-rule="evenodd" d="M29.2252 43.3277L31.9074 40H33V45H31.7666V41.8583L29.2169 45H28V40H29.2252V43.3277Z" fill="#3C3C3B"/>
<path fill-rule="evenodd" clip-rule="evenodd" d="M36.2612 42.7928C36.1709 43.2919 36.0503 43.681 35.8974 43.9633H38.0472V40.9927H36.4036C36.3976 41.6938 36.3508 42.293 36.2612 42.7928ZM39.2329 43.9633H40V44.2673L39.8972 46H38.8295L38.7821 44.9635H35.2021L35.1388 46H34.0633L34 44.2741V43.9708H34.2214C34.3322 43.9708 34.4429 43.9337 34.5536 43.8596C34.6643 43.7848 34.7566 43.6693 34.8304 43.5118C34.9728 43.2153 35.0749 42.8317 35.1388 42.3634C35.2021 41.894 35.2331 41.3757 35.2331 40.8074V40H39.2329V43.9633Z" fill="#3C3C3B"/>
<path fill-rule="evenodd" clip-rule="evenodd" d="M44.8693 41.0073H42.1429V41.9475H44.5757V42.9256H42.1429V43.992H45V45H41V40H44.8693V41.0073Z" fill="#3C3C3B"/>
<path fill-rule="evenodd" clip-rule="evenodd" d="M47.2689 41.956H49.7318V40H51V45H49.7318V42.993H47.2689V45H46V40H47.2689V41.956Z" fill="#3C3C3B"/>
<path fill-rule="evenodd" clip-rule="evenodd" d="M56 41.0149H54.1133V45H52.8867V41.0149H51V40H56V41.0149Z" fill="#3C3C3B"/>
<path fill-rule="evenodd" clip-rule="evenodd" d="M60.623 41.0996C60.3869 41.0208 60.1222 40.982 59.8314 40.982C59.5771 40.982 59.3462 41.0184 59.1413 41.0925C58.9357 41.1665 58.7601 41.2717 58.6144 41.4084C58.4687 41.5434 58.3575 41.7053 58.2788 41.8911C58.2007 42.078 58.1624 42.2811 58.1624 42.5009C58.1624 42.7297 58.202 42.9369 58.2827 43.1239C58.3633 43.3096 58.4765 43.4691 58.6222 43.6005C58.7673 43.7307 58.9422 43.8335 59.1452 43.9075C59.3475 43.9816 59.5712 44.0192 59.8158 44.0192C60.1124 44.0192 60.3895 43.9726 60.6464 43.8789C60.9046 43.7863 61.1343 43.6507 61.3372 43.4751L62 44.2265C61.4074 44.7432 60.6588 45 59.7533 45C59.3475 45 58.9761 44.9421 58.6378 44.8244C58.3002 44.7079 58.0095 44.5413 57.7675 44.3233C57.5262 44.1058 57.3376 43.8448 57.2023 43.5384C57.067 43.2332 57 42.8915 57 42.5146C57 42.1706 57.0657 41.8457 57.1984 41.5398C57.3311 41.2352 57.5223 40.967 57.7721 40.7383C58.0219 40.5089 58.323 40.3279 58.6769 40.1971C59.0307 40.0663 59.4307 40 59.8782 40C60.2841 40 60.6562 40.0561 60.9938 40.1678C61.332 40.2801 61.6338 40.4438 61.8985 40.6594L61.2513 41.4395C61.0692 41.292 60.8598 41.1791 60.623 41.0996Z" fill="#3C3C3B"/>
<path fill-rule="evenodd" clip-rule="evenodd" d="M64.1949 41.9037L64.785 41.8433L66.312 40H67.806L65.7947 42.3354L68 45H66.4407L64.7931 42.8661H64.1949V45H63V40H64.1949V41.9037Z" fill="#3C3C3B"/>
<path fill-rule="evenodd" clip-rule="evenodd" d="M69.2252 43.3277L71.9074 40H73V45H71.7666V41.8583L69.2169 45H68V40H69.2252V43.3277Z" fill="#3C3C3B"/>
<mask id="mask0" mask-type="alpha" maskUnits="userSpaceOnUse" x="74" y="40" width="6" height="6">
<path fill-rule="evenodd" clip-rule="evenodd" d="M74.0879 40.2637H79.6445V45.621H74.0879V40.2637Z" fill="white"/>
</mask>
<g mask="url(#mask0)">
<path fill-rule="evenodd" clip-rule="evenodd" d="M76.8539 42.175H76.9339L77.9972 40.2637H79.4766L77.7652 42.9023L79.6446 45.621H78.0926L76.8939 43.5583H76.8132L75.6306 45.621H74.0879L75.9666 42.8383L74.2552 40.2637H75.7506L76.8539 42.175Z" fill="#3C3C3B"/>
</g>
<path fill-rule="evenodd" clip-rule="evenodd" d="M10 50.0149H7.18355V54H6V49H10V50.0149Z" fill="#3C3C3B"/>
<path fill-rule="evenodd" clip-rule="evenodd" d="M13.0245 51.6419C13.3072 51.6419 13.5291 51.5672 13.6903 51.4179C13.8502 51.2679 13.9305 51.0676 13.9305 50.8137C13.9305 50.5648 13.8585 50.367 13.7151 50.2201C13.571 50.0733 13.355 49.9993 13.067 49.9993H12.0618V51.6419H13.0245ZM13.8809 49.1307C14.1123 49.2178 14.3118 49.3397 14.4794 49.4965C14.647 49.6533 14.7757 49.8418 14.8648 50.0633C14.9551 50.2842 15 50.5325 15 50.8062C15 51.0949 14.9492 51.3519 14.8477 51.5778C14.7462 51.8049 14.6069 51.9959 14.4298 52.1533C14.2528 52.3101 14.0444 52.4296 13.803 52.5105C13.5628 52.5926 13.3031 52.6343 13.0245 52.6343H12.0618V54H11V49H13.1101C13.3928 49 13.6501 49.0436 13.8809 49.1307Z" fill="#3C3C3B"/>
<path fill-rule="evenodd" clip-rule="evenodd" d="M19.7742 52.025L19.0297 50.1251H18.9459L18.1923 52.025H19.7742ZM22 54H20.6108L20.1844 53.0084H17.7828L17.3641 54H16L18.3012 49H19.6821L22 54Z" fill="#3C3C3B"/>
<path fill-rule="evenodd" clip-rule="evenodd" d="M23.2694 50.9553H25.7313V49H27V54H25.7313V51.9924H23.2694V54H22V49H23.2694V50.9553Z" fill="#3C3C3B"/>
<path fill-rule="evenodd" clip-rule="evenodd" d="M33 50.0149H31.114V54H29.8867V50.0149H28V49H33V50.0149Z" fill="#3C3C3B"/>
<mask id="mask1" mask-type="alpha" maskUnits="userSpaceOnUse" x="33" y="49" width="6" height="7">
<path fill-rule="evenodd" clip-rule="evenodd" d="M33.082 49.4182H38.7674V55.0001H33.082V49.4182Z" fill="white"/>
</mask>
<g mask="url(#mask1)">
<path fill-rule="evenodd" clip-rule="evenodd" d="M35.2287 50.6262C35.0234 50.7169 34.8507 50.8389 34.7094 50.9942C34.568 51.1489 34.46 51.3302 34.3854 51.5375C34.3107 51.7455 34.2734 51.9695 34.2734 52.2095C34.2734 52.4482 34.3107 52.6742 34.3854 52.8849C34.46 53.0955 34.5694 53.2782 34.7134 53.4329C34.8567 53.5862 35.03 53.7089 35.2327 53.7962C35.436 53.8842 35.6647 53.9282 35.9207 53.9282C36.182 53.9282 36.4147 53.8829 36.62 53.7929C36.8254 53.7022 36.9987 53.5782 37.1394 53.4202C37.2807 53.2635 37.3874 53.0809 37.46 52.8729C37.5314 52.6655 37.568 52.4442 37.568 52.2095C37.568 51.9642 37.53 51.7362 37.456 51.5255C37.3814 51.3155 37.2727 51.1329 37.1314 50.9775C36.9907 50.8235 36.8174 50.7035 36.612 50.6182C36.4074 50.5322 36.1767 50.4902 35.9207 50.4902C35.6647 50.4902 35.434 50.5355 35.2287 50.6262ZM37.0794 49.6309C37.432 49.7722 37.7314 49.9682 37.9794 50.2189C38.2274 50.4689 38.4207 50.7635 38.5587 51.1022C38.6974 51.4402 38.7674 51.8089 38.7674 52.2095C38.7674 52.5935 38.6974 52.9542 38.5587 53.2929C38.4207 53.6315 38.226 53.9269 37.9754 54.1802C37.7247 54.4335 37.4254 54.6335 37.076 54.7789C36.7267 54.9269 36.3414 55.0002 35.9207 55.0002C35.5047 55.0002 35.124 54.9295 34.7767 54.7882C34.4307 54.6469 34.1314 54.4509 33.878 54.1995C33.6247 53.9489 33.4287 53.6542 33.29 53.3129C33.1514 52.9715 33.082 52.6035 33.082 52.2095C33.082 51.8255 33.1514 51.4629 33.29 51.1222C33.4287 50.7802 33.6247 50.4849 33.878 50.2349C34.1314 49.9842 34.4307 49.7855 34.7767 49.6389C35.124 49.4922 35.5047 49.4182 35.9207 49.4182C36.3414 49.4182 36.728 49.4895 37.0794 49.6309Z" fill="#3C3C3B"/>
</g>
<path fill-rule="evenodd" clip-rule="evenodd" d="M42.2793 53.0448C42.7411 53.0448 42.9714 52.8482 42.9714 52.4555C42.9714 52.2663 42.9114 52.1232 42.7901 52.0261C42.6688 51.9291 42.4962 51.8805 42.2723 51.8805H41.042V53.0448H42.2793ZM42.112 50.9701C42.2892 50.9701 42.4274 50.9241 42.5277 50.8314C42.628 50.7399 42.6781 50.6142 42.6781 50.4549C42.6781 50.122 42.4776 49.9552 42.0764 49.9552H41.042V50.9701H42.112ZM43.2758 49.3653C43.558 49.6092 43.6991 49.9428 43.6991 50.3647C43.6991 50.5744 43.6583 50.761 43.5773 50.9253C43.495 51.089 43.3848 51.2116 43.2443 51.2912V51.3584C43.4729 51.4375 43.656 51.58 43.7936 51.7872C43.9312 51.9938 44 52.234 44 52.5078C44 52.7113 43.9662 52.9035 43.898 53.0853C43.8309 53.267 43.7259 53.425 43.5837 53.5601C43.4414 53.6938 43.2612 53.8009 43.042 53.8805C42.8227 53.9602 42.5638 54 42.2659 54H40V49H42.07C42.5918 49 42.9942 49.1207 43.2758 49.3653Z" fill="#3C3C3B"/>
<path fill-rule="evenodd" clip-rule="evenodd" d="M33 5H30.4339H27.2658H17.7816C16.2411 5 14.864 5.96303 14.3374 7.41046L8.44166 23.5973C7.91182 25.0402 6.53799 26 5 26H7.56611H10.2764H20.2177C21.7583 26 23.1353 25.037 23.6619 23.5895L29.5583 7.4021C30.0882 5.95981 31.4614 5 33 5Z" fill="#D6AE76"/>
<path fill-rule="evenodd" clip-rule="evenodd" d="M13.2159 7.46735C13.9088 5.59206 15.7367 4.3321 17.7628 4.3321H19.291L20.1736 1.94479C20.6081 0.777278 21.7367 0 23 0H20.8917H18.2899H10.5002C9.23367 0 8.1031 0.779828 7.6699 1.95116L2.82708 15.0546C2.39195 16.2221 1.26332 17 0 17H2.10769H4.33387H9.69276L13.2159 7.46735Z" fill="#E7D3B5"/>
</svg>
