<svg xmlns="http://www.w3.org/2000/svg" viewBox="0 0 970.42 617.6" class="s_sheme__map" data-aos="fade-up">
          <path d="M276.71,1.5,436.93,15.21l62.86,5.2,83.66,59.08,60.5,29.78,81.76,9.45L839.61,158l21.74,12.76,60.5,70,28.83,38.76,18,36.4-54.35,61.92,1.42,16.54L921.85,416l22.21,47.27,1.42,45.85-20.8,60L781,614.08l-11.34-1.42L645.36,537H622.2L513,615.5l-14.65-20.8L504.51,572,496,546,436.93,463.3,374.07,416l-64.75-48.21-68.06-44.9-62.39-33.56-48.68-17.49L20.07,215.15,1.64,13.79,219.52,1.5Z" style="fill:none;stroke:#fff;stroke-linecap:square;stroke-width:3px;stroke-dasharray:8" />
          <polygon points="940.63 399.94 941.1 410.5 968.63 408.58 968.17 398.5 940.63 399.94" style="fill:none;stroke:#fff;stroke-linecap:round;stroke-linejoin:round;opacity:0.5;isolation:isolate" />
          <polygon points="248.63 62.5 232.63 62.5 232.63 47.5 248.63 47.5 248.63 62.5" style="fill:#188954;stroke:#09b458;stroke-linecap:round;stroke-linejoin:round;stroke-width:2px" />
          <rect x="675.64" y="267.5" width="15" height="14" style="fill:#188954;stroke:#09b458;stroke-width:2px" />
          <path d="M617.74,140.71l-2.93,14.14,14.72,3.45,2.93-14.14Z" style="fill:#188954;stroke:#09b458;stroke-width:2px" />
          <path d="M416.86,61.84,410,74l13.41,7.19L430.26,69Z" style="fill:#188954;stroke:#09b458;stroke-width:2px" />
          <polygon points="245.63 185.5 229.63 185.5 229.63 170.5 245.63 170.5 245.63 185.5" style="fill:#188954;stroke:#09b458;stroke-linecap:round;stroke-linejoin:round;stroke-width:2px" />
          <path d="M218.66,1.5Q206.1,139.85,206.1,149c0,9.2,12.4,26.28,18.53,43.19s12.2,28.8,10.8,40.6c-1.09,9.13-12.67,29.27-18.31,32.58q-5.46,3.21-19.24,10.86L178.64,289.5" style="fill:none;stroke:#fff;stroke-linecap:round;stroke-linejoin:round" />
          <polygon points="733.05 129.5 731.63 133.19 738.22 135.5 739.63 131.81 733.05 129.5" style="fill:none;stroke:#fff;stroke-linecap:round;stroke-linejoin:round;opacity:0.30000001192092896;isolation:isolate" />
          <polygon points="688.63 175.5 684.63 180 688.63 183.5 692.63 179 688.63 175.5" style="fill:none;stroke:#fff;stroke-linecap:round;stroke-linejoin:round;opacity:0.30000001192092896;isolation:isolate" />
          <polygon points="829.99 157.5 825.63 164.88 836.28 169.5 840.63 162.12 829.99 157.5" style="fill:none;stroke:#fff;stroke-linecap:round;stroke-linejoin:round;opacity:0.30000001192092896;isolation:isolate" />
          <polyline points="883.63 200.44 878.63 199.5 873.63 222.09 878.87 223.5" style="fill:none;stroke:#fff;stroke-linecap:round;stroke-linejoin:round;opacity:0.5;isolation:isolate" />
          <rect x="36.64" y="162.5" width="7" height="7" style="fill:none;stroke:#fff;stroke-linecap:round;stroke-linejoin:round;opacity:0.30000001192092896;isolation:isolate" />
          <polygon points="168.58 112.97 175.73 115.42 173.27 122.57 166.12 120.11 168.58 112.97" style="fill:none;stroke:#fff;stroke-linecap:round;stroke-linejoin:round;opacity:0.30000001192092896;isolation:isolate" />
          <polygon points="221.56 123.93 226.21 123.03 227.11 127.66 222.47 128.56 221.56 123.93" style="fill:none;stroke:#fff;stroke-linecap:round;stroke-linejoin:round;opacity:0.30000001192092896;isolation:isolate" />
          <polygon  class="s_sheme__block" data-tooltip-content="#s_sheme__tooltip-6"  points="758.66 366.67 769.5 378.03 840.19 290.94 804.37 254.5 758.63 311.77 758.66 366.67 758.27 366.03 752.98 366.03 750.63 369.34 754.46 383.08 754.46 392.08 757.19 397.76 775.91 384.03 758.27 366.03 775.91 384.03 794.17 402.03 770.76 411.5 765.15 411.5 757.19 397.76 775.91 384.03" style="fill:#188954;stroke:#09b458;stroke-linecap:round;stroke-linejoin:round;stroke-width:2px" />
          <path d="M781.75,283.84l35.82,35" style="fill:none;stroke:#09b458;stroke-linecap:round;stroke-linejoin:round;stroke-width:2px" />
          <path d="M758.66,313.66,794,348.21" style="fill:none;stroke:#09b458;stroke-linecap:round;stroke-linejoin:round;stroke-width:2px" />
          <polyline points="822.28 272.49 775.86 330.23 760.54 369.03" style="fill:none;stroke:#09b458;stroke-linecap:round;stroke-linejoin:round;stroke-width:2px" />
          <polyline points="752.14 198.23 749.32 192.07 749.32 184.5 752.14 184.5 752.14 191.36 757.78 193.97" style="fill:none;stroke:#fff;stroke-linecap:round;stroke-linejoin:round;opacity:0.5;isolation:isolate" />
          <polygon class="s_sheme__block" data-tooltip-content="#s_sheme__tooltip-17" points="720.63 222.37 770.48 184.5 794.93 217.63 746.03 254.55 720.63 222.37" style="fill:#188954;stroke:#09b458;stroke-linecap:round;stroke-linejoin:round;stroke-width:2px" />
          <path d="M737.56,210.06l25.86,30.77" style="fill:none;stroke:#09b458;stroke-linecap:round;stroke-linejoin:round;stroke-width:2px" />
          <path d="M756.37,195.86,780.83,228" style="fill:none;stroke:#09b458;stroke-linecap:round;stroke-linejoin:round;stroke-width:2px" />
          <path d="M795.87,218.58l3.76,5.21L759.19,255,755,249.35" style="fill:none;stroke:#ffce1a;stroke-linejoin:round;stroke-width:1.600000023841858px;stroke-dasharray:5,3" />
          <g style="opacity:0.6000000238418579">
            <polygon class="s_sheme__block" data-tooltip-content="#s_sheme__tooltip-16"  points="772.9 156.49 771.49 159.31 753.63 151.32 755.04 148.5 772.9 156.49" style="fill:none;stroke:#fff;stroke-linecap:round;stroke-linejoin:round" />
          </g>
          <g style="opacity:0.6000000238418579">
            <polygon points="793.58 164.01 795.92 173.88 822.24 167.3 819.89 157.43 793.58 164.01" style="fill:none;stroke:#fff;stroke-linecap:round;stroke-linejoin:round" />
          </g>
          <g style="opacity:0.6000000238418579">
            <polygon points="806.26 195.51 827.88 185.17 831.63 193.16 809.55 203.5 806.26 195.51" style="fill:none;stroke:#fff;stroke-linecap:round;stroke-linejoin:round" />
          </g>
          <g style="opacity:0.5">
            <polyline points="208.63 306.5 220.63 292.67 217.28 275.51 217.28 265.5" style="fill:none;stroke:#fff;stroke-linecap:round;stroke-linejoin:round" />
            <polyline class="s_sheme__block" data-tooltip-content="#s_sheme__tooltip-12" points="216.63 30.09 274.25 31.5 276.63 1.5" style="fill:none;stroke:#fff;stroke-linecap:round;stroke-linejoin:round" />
          </g>
          <path class="s_sheme__block" data-tooltip-content="#s_sheme__tooltip-11" d="M243.64,258.5l-20.75,2.36m-4.25,14.64,24.53-2.36" style="fill:none;stroke:#ffce1a;stroke-linecap:round;stroke-linejoin:round" />
          <path d="M270.4,43.5l-.47-12m-13.29,0,1.42,11.08" style="fill:none;stroke:#ffce1a;stroke-linecap:round;stroke-linejoin:round" />
          <path d="M420.41,383.82,414,395.95l13.87,7.2,6.42-12.55Z" style="fill:#188954;stroke:#09b458;stroke-width:2px" />
          <path class="s_sheme__block" data-tooltip-content="#s_sheme__tooltip-9" d="M250.48,42.74,379.3,57.1a2,2,0,0,1,.76.25l134.1,75.73a2,2,0,0,0,.54.21l158.39,36.43a2,2,0,0,1,1.55,1.95V377.35a2,2,0,0,1-1.52,1.94L510.86,419.38a2,2,0,0,1-1.36-.14l-135.93-66.3h0L243.8,291.12a2,2,0,0,1-1.14-1.85l2.81-124.39h0l2.79-120.19a2,2,0,0,1,2-2Z" style="fill:#198556;stroke:#fff;stroke-linecap:round;stroke-linejoin:round;stroke-width:2.4000000953674316px;opacity:0.5;isolation:isolate" />
          <g style="opacity:0.30000001192092896">
            <polyline points="379.7 57.15 374.98 203.15 373.56 352.93" style="fill:none;stroke:#fff;stroke-linecap:round;stroke-linejoin:round" />
            <polyline points="245.47 164.88 374.98 203.15 508.26 265.99 674.63 267.41" style="fill:none;stroke:#fff;stroke-linecap:round;stroke-linejoin:round" />
            <polyline points="514.41 133.22 508.26 265.99 510.15 419.56" style="fill:none;stroke:#fff;stroke-linecap:round;stroke-linejoin:round" />
          </g>
          <path d="M355,344.5l-2.36,4.73,158.45,77.64,95.55-25.09v73.38l-56.76,45L574,549.5l4.73-3.79" style="fill:none;stroke:#ffce1a;stroke-width:1.600000023841858px;stroke-dasharray:5,3" />
          <polygon points="644.5 442.69 675.63 442.69 675.63 478.53 648.74 478.53 644.5 442.69" style="fill:#188954;stroke:#09b458;stroke-linecap:round;stroke-linejoin:round;stroke-width:2px" />
          <polygon points="612.42 443.64 644.95 443.64 649.22 478.53 612.42 478.53 612.42 443.64" style="fill:#188954;stroke:#09b458;stroke-linecap:round;stroke-linejoin:round;stroke-width:2px" />
          <g class="s_sheme__block" data-tooltip-content="#s_sheme__tooltip-7">
            <polygon points="638.84 388.93 675.63 379.5 675.63 426.66 644.5 426.66 638.84 388.93" style="fill:#188954;stroke:#09b458;stroke-linecap:round;stroke-linejoin:round;stroke-width:2px" />
            <polygon points="612.42 395.53 638.84 388.93 644.5 427.6 612.42 427.6 612.42 395.53" style="fill:#188954;stroke:#09b458;stroke-linecap:round;stroke-linejoin:round;stroke-width:2px" />
            <rect x="612.42" y="427.6" width="16.04" height="16.03" style="fill:#188954;stroke:#09b458;stroke-linecap:round;stroke-linejoin:round;stroke-width:2px" />
            <rect x="628.46" y="427.6" width="16.04" height="16.03" style="fill:#188954;stroke:#09b458;stroke-linecap:round;stroke-linejoin:round;stroke-width:2px" />
            <rect x="644.5" y="426.66" width="15.1" height="16.03" style="fill:#188954;stroke:#09b458;stroke-linecap:round;stroke-linejoin:round;stroke-width:2px" />
            <rect x="659.6" y="426.66" width="16.04" height="16.03" style="fill:#188954;stroke:#09b458;stroke-linecap:round;stroke-linejoin:round;stroke-width:2px" />
            <polygon points="612.52 478.53 630.35 478.53 617.34 494.57 607.7 482.31 612.52 478.53" style="fill:#188954;stroke:#09b458;stroke-linecap:round;stroke-linejoin:round;stroke-width:2px" />
            <polygon points="629.81 478.53 649.22 478.53 626.52 506.83 617.13 494.57 629.81 478.53" style="fill:#188954;stroke:#09b458;stroke-linecap:round;stroke-linejoin:round;stroke-width:2px" />
            <polygon points="607.7 482.31 617.13 494.57 626.57 506.83 606.76 522.86 586.94 498.34 607.7 482.31" style="fill:#188954;stroke:#09b458;stroke-linecap:round;stroke-linejoin:round;stroke-width:2px" />
            <polygon points="586.94 498.34 606.76 522.86 578.45 545.5 558.63 520.98 586.94 498.34" style="fill:#188954;stroke:#09b458;stroke-linecap:round;stroke-linejoin:round;stroke-width:2px" />
          </g>
          <polygon points="752.98 357.5 758.59 357.5 758.59 366.03 752.98 366.03 752.98 357.5" style="fill:#188954;stroke:#09b458;stroke-linecap:round;stroke-linejoin:round;stroke-width:2px" />
      
          <polygon class="s_sheme__block" data-tooltip-content="#s_sheme__tooltip-5" points="847.71 521.98 859.07 533.34 847.71 544.69 836.35 533.34 847.71 521.98 836.37 510.65 847.73 522 836.37 533.36 825 522 836.37 510.65" style="fill:#188954;stroke:#09b458;stroke-linecap:round;stroke-linejoin:round;stroke-width:2px" />
      
          <polyline points="884.62 196.5 871.52 263.64 784.63 374.27 786.05 382.79 843.66 407.37 858.77 420.14 864.91 422.5 920.63 414.94" style="fill:none;stroke:#fff;stroke-linecap:round;stroke-linejoin:round" />
          <g style="opacity:0.6000000238418579">
            <path d="M857.75,371.8h14.12v6.62H857.75Zm4.71-15.13H870V369h-7.53Zm-5.65,0h5.65V369h-5.65Zm11.74-71,6.24-4.21,13.75,20.38-6.24,4.21Zm1.71-1.16L884,304.94m-33.78,83.41-.94,4.73,6.12,1.42.94-4.73Zm38.12-30.73,8.94-6.15,9.41,13.71-8.94,6.15Zm3.76-2.84-1.41-1.89L893,351l1.41,1.89M885,315.54l12.71-4.26,9.88,27-4.71,1.89-1.88-5.2-8.47,3.31Zm12.47,20.8,2.12,5.2,3.29-1.42M862,302.77l-5.18,3.78,5.65,8.51,5.18-3.78Zm-1.88,8,4.71-3.31m-29.18,6.15L849.28,299l5.65,5.67-13.67,14.66Zm18.82-24.11-3.76,4.28,4.71,3.29,3.76-4.26Zm7.76,50.12,2.59,10.88,8-1.89-2.35-10.88Zm2.12,2.84,5.65-1.42.94,4.26-5.65,1.42Z" style="fill:none;stroke:#fff;stroke-linecap:round;stroke-linejoin:round" />
          </g>
        </svg>