<svg width="1028" height="655" viewBox="0 0 1028 655" fill="none" xmlns="http://www.w3.org/2000/svg">
<path fill-rule="evenodd" clip-rule="evenodd" d="M293 2L462.5 16.5112L529 22.0154L617.5 84.5635L681.5 116.088L768 126.095L888.5 167.627L911.5 181.138L975.5 255.195L1006 296.226L1025 334.756L967.5 400.306L969 417.82L975.5 440.838L999 490.876L1000.5 539.413L978.5 602.962L826.5 650.499L814.5 648.998L683 568.936H658.5L543 652L527.5 629.983L534 605.965L525 578.443L462.5 490.876L396 440.838L327.5 389.798L255.5 342.262L189.5 306.734L138 288.22L21.5 228.174L2 15.01L232.5 2H293Z" stroke="white" stroke-width="3" stroke-linecap="square" stroke-dasharray="8"/>
<path opacity="0.5" d="M796 210L793 203.5V195.5H796V202.75L802 205.5" stroke="white" stroke-linecap="round" stroke-linejoin="round"/>
<path fill-rule="evenodd" clip-rule="evenodd" d="M762.5 235.5L815.5 195.5L841.5 230.5L789.5 269.5L762.5 235.5Z" fill="#008432" fill-opacity="0.2" stroke="#04703D" stroke-width="2" stroke-linecap="round" stroke-linejoin="round"/>
<path d="M780.5 222.5L808 255" stroke="#04703D" stroke-width="2" stroke-linecap="round" stroke-linejoin="round"/>
<path d="M800.5 207.5L826.5 241.5" stroke="#04703D" stroke-width="2" stroke-linecap="round" stroke-linejoin="round"/>
<path d="M842.5 231.5L846.5 237L803.5 270L799 264" stroke="#FFCE1A" stroke-width="1.6" stroke-linejoin="round" stroke-dasharray="5 3"/>
<rect opacity="0.3" x="39.084" y="173.084" width="7" height="7" stroke="white" stroke-linecap="round" stroke-linejoin="round"/>
<rect opacity="0.3" x="178.605" y="120" width="8" height="8" transform="rotate(19 178.605 120)" stroke="white" stroke-linecap="round" stroke-linejoin="round"/>
<rect opacity="0.3" x="234.652" y="131.607" width="5" height="5" transform="rotate(-11 234.652 131.607)" stroke="white" stroke-linecap="round" stroke-linejoin="round"/>
<path opacity="0.5" d="M935 213L929.75 212L924.5 236L930 237.5" stroke="white" stroke-linecap="round" stroke-linejoin="round"/>
<path opacity="0.6" d="M876.952 196.787L877.405 196.574V196.574L876.952 196.787ZM876.668 196.529L876.5 197L876.668 196.529ZM880.952 205.287L881.405 205.074L880.952 205.287ZM880.97 205.67L880.5 205.5L880.97 205.67ZM880.712 205.953L880.5 205.5L880.712 205.953ZM857.212 216.953L857.424 217.406L857.212 216.953ZM856.538 216.69L856.075 216.881L856.538 216.69ZM853.038 208.19L852.575 208.381L853.038 208.19ZM853.284 207.549L853.069 207.098H853.069L853.284 207.549ZM876.284 196.549L876.5 197L876.284 196.549ZM857.263 215.825L856.8 216.015C856.852 216.142 856.954 216.241 857.081 216.291C857.209 216.34 857.351 216.336 857.475 216.278L857.263 215.825ZM854.142 208.247L853.927 207.796C853.687 207.91 853.579 208.192 853.68 208.437L854.142 208.247ZM879.834 205.26L880.046 205.712C880.166 205.656 880.259 205.554 880.305 205.429C880.35 205.305 880.343 205.167 880.287 205.047L879.834 205.26ZM876.262 197.668L876.714 197.455C876.658 197.335 876.555 197.242 876.43 197.197C876.304 197.152 876.166 197.16 876.046 197.217L876.262 197.668ZM868.486 167.384L868 167.5V167.5L868.486 167.384ZM868.26 167.073L868.519 166.645L868.519 166.645L868.26 167.073ZM870.986 177.884L870.5 178V178L870.986 177.884ZM870.621 178.485L870.5 178L870.621 178.485ZM842.621 185.485L842.743 185.97L842.621 185.485ZM842.24 185.427L842.5 185L842.5 185L842.24 185.427ZM842.014 185.116L842.5 185L842.014 185.116ZM839.514 174.616L839.027 174.732L839.514 174.616ZM839.879 174.015L839.757 173.53L839.879 174.015ZM867.879 167.015L868 167.5L867.879 167.015ZM842.869 184.392L842.383 184.508C842.414 184.638 842.495 184.75 842.61 184.82C842.724 184.889 842.861 184.91 842.991 184.877L842.869 184.392ZM840.601 174.865L840.48 174.38C840.214 174.447 840.051 174.714 840.115 174.981L840.601 174.865ZM869.899 177.635L870.02 178.12C870.286 178.053 870.449 177.786 870.385 177.519L869.899 177.635ZM867.631 168.108L868.117 167.992C868.086 167.862 868.005 167.75 867.89 167.68C867.776 167.611 867.639 167.59 867.509 167.623L867.631 168.108ZM799.204 157.544L799.408 157.087L799.204 157.544ZM798.553 157.776L798.106 157.553L798.106 157.553L798.553 157.776ZM818.204 166.044L818.408 165.587L818.408 165.587L818.204 166.044ZM818.447 166.724L818.894 166.947V166.947L818.447 166.724ZM816.947 169.724L817.394 169.947L817.394 169.947L816.947 169.724ZM816.296 169.956L816.092 170.413H816.092L816.296 169.956ZM797.296 161.456L797.092 161.913L797.092 161.913L797.296 161.456ZM797.029 161.168L796.558 161.337L796.558 161.337L797.029 161.168ZM797.053 160.776L796.606 160.553L796.606 160.553L797.053 160.776ZM798.181 160.757L797.733 160.533C797.672 160.655 797.664 160.797 797.71 160.925C797.756 161.053 797.852 161.157 797.976 161.213L798.181 160.757ZM799.233 158.652L799.437 158.196C799.193 158.086 798.906 158.189 798.786 158.428L799.233 158.652ZM816.267 168.848L816.063 169.304C816.307 169.414 816.594 169.311 816.714 169.072L816.267 168.848ZM817.319 166.743L817.767 166.967C817.828 166.845 817.836 166.703 817.79 166.575C817.744 166.447 817.648 166.343 817.524 166.287L817.319 166.743ZM877.405 196.574C877.291 196.333 877.087 196.147 876.836 196.058L876.5 197V197L877.405 196.574ZM881.405 205.074L877.405 196.574L876.5 197L880.5 205.5L881.405 205.074ZM881.441 205.84C881.531 205.59 881.518 205.314 881.405 205.074L880.5 205.5L881.441 205.84ZM880.924 206.406C881.164 206.293 881.35 206.089 881.441 205.84L880.5 205.5L880.924 206.406ZM857.424 217.406L880.924 206.406L880.5 205.5L857 216.5L857.424 217.406ZM856.637 217.432C856.892 217.531 857.176 217.522 857.424 217.406L857 216.5L856.637 217.432ZM856.075 216.881C856.179 217.134 856.382 217.333 856.637 217.432L857 216.5L856.075 216.881ZM852.575 208.381L856.075 216.881L857 216.5L853.5 208L852.575 208.381ZM853.069 207.098C852.59 207.327 852.373 207.89 852.575 208.381L853.5 208L853.069 207.098ZM876.069 196.098L853.069 207.098L853.5 208L876.5 197L876.069 196.098ZM876.836 196.058C876.585 195.969 876.309 195.983 876.069 196.098L876.5 197L876.836 196.058ZM857.725 215.635L854.605 208.057L853.68 208.437L856.8 216.015L857.725 215.635ZM879.622 204.807L857.051 215.372L857.475 216.278L880.046 205.712L879.622 204.807ZM875.809 197.881L879.382 205.472L880.287 205.047L876.714 197.455L875.809 197.881ZM854.358 208.698L876.478 198.119L876.046 197.217L853.927 207.796L854.358 208.698ZM868.973 167.268C868.911 167.008 868.748 166.784 868.519 166.645L868 167.5V167.5L868.973 167.268ZM871.473 177.768L868.973 167.268L868 167.5L870.5 178L871.473 177.768ZM870.743 178.97C871.274 178.837 871.6 178.301 871.473 177.768L870.5 178V178L870.743 178.97ZM842.743 185.97L870.743 178.97L870.5 178L842.5 185L842.743 185.97ZM841.981 185.855C842.209 185.993 842.483 186.035 842.743 185.97L842.5 185L841.981 185.855ZM841.527 185.232C841.589 185.492 841.752 185.716 841.981 185.855L842.5 185L842.5 185L841.527 185.232ZM839.027 174.732L841.527 185.232L842.5 185L840 174.5L839.027 174.732ZM839.757 173.53C839.226 173.663 838.9 174.199 839.027 174.732L840 174.5L839.757 173.53ZM867.757 166.53L839.757 173.53L840 174.5L868 167.5L867.757 166.53ZM868.519 166.645C868.291 166.507 868.017 166.465 867.757 166.53L868 167.5V167.5L868.519 166.645ZM843.356 184.276L841.087 174.749L840.115 174.981L842.383 184.508L843.356 184.276ZM869.778 177.15L842.748 183.907L842.991 184.877L870.02 178.12L869.778 177.15ZM867.144 168.224L869.413 177.751L870.385 177.519L868.117 167.992L867.144 168.224ZM840.722 175.35L867.752 168.593L867.509 167.623L840.48 174.38L840.722 175.35ZM799.408 157.087C798.919 156.868 798.345 157.074 798.106 157.553L799 158L799 158L799.408 157.087ZM818.408 165.587L799.408 157.087L799 158L818 166.5L818.408 165.587ZM818.942 166.163C818.85 165.907 818.657 165.699 818.408 165.587L818 166.5L818 166.5L818.942 166.163ZM818.894 166.947C819.016 166.703 819.033 166.42 818.942 166.163L818 166.5V166.5L818.894 166.947ZM817.394 169.947L818.894 166.947L818 166.5L816.5 169.5L817.394 169.947ZM816.092 170.413C816.581 170.632 817.155 170.426 817.394 169.947L816.5 169.5L816.5 169.5L816.092 170.413ZM797.092 161.913L816.092 170.413L816.5 169.5L797.5 161L797.092 161.913ZM796.558 161.337C796.65 161.593 796.843 161.801 797.092 161.913L797.5 161L797.5 161L796.558 161.337ZM796.606 160.553C796.484 160.797 796.467 161.08 796.558 161.337L797.5 161L797.5 161L796.606 160.553ZM798.106 157.553L796.606 160.553L797.5 161L799 158L798.106 157.553ZM798.628 160.98L799.68 158.876L798.786 158.428L797.733 160.533L798.628 160.98ZM816.471 168.392L798.385 160.3L797.976 161.213L816.063 169.304L816.471 168.392ZM816.872 166.52L815.82 168.624L816.714 169.072L817.767 166.967L816.872 166.52ZM799.029 159.108L817.115 167.2L817.524 166.287L799.437 158.196L799.029 159.108Z" fill="white"/>
<path opacity="0.3" fill-rule="evenodd" clip-rule="evenodd" d="M878 166.5L873.5 174.5L884.5 179.5L889 171.5L878 166.5Z" stroke="white" stroke-linecap="round" stroke-linejoin="round"/>
<path opacity="0.6" d="M908 400H907.5C907.5 400.276 907.724 400.5 908 400.5V400ZM908 394V393.5C907.724 393.5 907.5 393.724 907.5 394H908ZM922 400V400.5C922.276 400.5 922.5 400.276 922.5 400H922ZM922 394H922.5C922.5 393.724 922.276 393.5 922 393.5V394ZM899.612 410.513L899.725 410.026L899.612 410.513ZM899.229 410.58L898.958 410.16L899.229 410.58ZM906.112 412.013L906 412.5L906.112 412.013ZM906.49 412.598L906.981 412.696L906.49 412.598ZM905.49 417.598L905 417.5L905.49 417.598ZM905.271 417.92L905.542 418.34H905.542L905.271 417.92ZM904.888 417.987L905 417.5H905L904.888 417.987ZM898.388 416.487L898.5 416H898.5L898.388 416.487ZM898.01 415.902L897.519 415.804L898.01 415.902ZM899.01 410.902L898.519 410.804L899.01 410.902ZM899.086 415.622L898.595 415.524C898.542 415.789 898.71 416.048 898.973 416.109L899.086 415.622ZM899.889 411.603L900.002 411.116C899.87 411.085 899.732 411.11 899.618 411.183C899.505 411.256 899.426 411.372 899.399 411.505L899.889 411.603ZM904.611 416.897L904.498 417.384C904.63 417.415 904.768 417.39 904.882 417.317C904.995 417.244 905.074 417.128 905.101 416.995L904.611 416.897ZM905.414 412.878L905.905 412.976C905.958 412.711 905.79 412.452 905.527 412.391L905.414 412.878ZM898.854 316.146L899.207 315.793H899.207L898.854 316.146ZM898.492 316L898.5 316.5H898.5L898.492 316ZM904.854 322.146L904.5 322.5L904.854 322.146ZM904.865 322.842L905.23 323.184L904.865 322.842ZM890.339 338.342L890.704 338.684L890.339 338.342ZM889.62 338.353L889.974 338L889.974 338L889.62 338.353ZM883.646 332.353L883.291 332.706H883.291L883.646 332.353ZM883.635 331.658L884 332H884L883.635 331.658ZM898.135 316.158L897.77 315.817L897.77 315.817L898.135 316.158ZM884.695 331.989L884.33 331.648C884.146 331.844 884.151 332.151 884.341 332.342L884.695 331.989ZM898.512 317.219L898.866 316.866C898.77 316.77 898.639 316.717 898.504 316.719C898.368 316.721 898.239 316.779 898.147 316.877L898.512 317.219ZM889.963 337.28L889.609 337.633C889.705 337.729 889.835 337.782 889.971 337.78C890.107 337.778 890.236 337.721 890.328 337.622L889.963 337.28ZM903.804 322.511L904.169 322.853C904.354 322.656 904.349 322.349 904.158 322.158L903.804 322.511ZM904.287 306.09L904.573 305.681L904.287 306.09ZM903.625 306.169L903.251 305.837L903.625 306.169ZM909.287 309.59L909.573 309.181L909.287 309.59ZM909.497 309.942L909.993 309.884L909.497 309.942ZM909.374 310.332L909.747 310.664L909.374 310.332ZM905.374 314.832L905 314.5V314.5L905.374 314.832ZM904.715 314.91L905 314.5V314.5L904.715 314.91ZM899.715 311.433L900 311.022L900 311.022L899.715 311.433ZM899.504 311.082L899.007 311.141L899.504 311.082ZM899.625 310.691L899.251 310.36L899.625 310.691ZM900.747 310.933L900.372 310.601C900.278 310.708 900.233 310.851 900.25 310.992C900.267 311.134 900.344 311.262 900.461 311.343L900.747 310.933ZM904.079 307.166L904.366 306.756C904.157 306.61 903.873 306.644 903.704 306.834L904.079 307.166ZM904.921 313.836L904.636 314.247C904.844 314.391 905.127 314.358 905.295 314.168L904.921 313.836ZM908.253 310.088L908.627 310.42C908.722 310.313 908.766 310.171 908.75 310.029C908.733 309.888 908.657 309.76 908.54 309.678L908.253 310.088ZM907.5 392.5C906.948 392.5 906.5 392.948 906.5 393.5H907.5V392.5ZM922.5 392.5H907.5V393.5H922.5V392.5ZM923.5 393.5C923.5 392.948 923.052 392.5 922.5 392.5V393.5H923.5ZM923.5 400.5V393.5H922.5V400.5H923.5ZM922.5 401.5C923.052 401.5 923.5 401.052 923.5 400.5H922.5V401.5ZM907.5 401.5H922.5V400.5H907.5V401.5ZM906.5 400.5C906.5 401.052 906.948 401.5 907.5 401.5V400.5H906.5ZM906.5 393.5V400.5H907.5V393.5H906.5ZM908.5 400V394H907.5V400H908.5ZM922 399.5H908V400.5H922V399.5ZM921.5 394V400H922.5V394H921.5ZM908 394.5H922V393.5H908V394.5ZM899.725 410.026C899.461 409.965 899.185 410.013 898.958 410.16L899.5 411L899.725 410.026ZM906.225 411.526L899.725 410.026L899.5 411L906 412.5L906.225 411.526ZM906.981 412.696C907.087 412.166 906.752 411.647 906.225 411.526L906 412.5L906.981 412.696ZM905.981 417.696L906.981 412.696L906 412.5L905 417.5L905.981 417.696ZM905.542 418.34C905.77 418.193 905.928 417.961 905.981 417.696L905 417.5H905L905.542 418.34ZM904.775 418.474C905.039 418.535 905.315 418.487 905.542 418.34L905 417.5H905L904.775 418.474ZM898.275 416.974L904.775 418.474L905 417.5L898.5 416L898.275 416.974ZM897.519 415.804C897.413 416.334 897.748 416.853 898.275 416.974L898.5 416H898.5L897.519 415.804ZM898.519 410.804L897.519 415.804L898.5 416L899.5 411L898.519 410.804ZM898.958 410.16C898.73 410.306 898.572 410.539 898.519 410.804L899.5 411L898.958 410.16ZM899.576 415.72L900.38 411.701L899.399 411.505L898.595 415.524L899.576 415.72ZM904.723 416.41L899.198 415.135L898.973 416.109L904.498 417.384L904.723 416.41ZM904.924 412.78L904.12 416.799L905.101 416.995L905.905 412.976L904.924 412.78ZM899.777 412.09L905.302 413.365L905.527 412.391L900.002 411.116L899.777 412.09ZM899.207 315.793C899.015 315.601 898.754 315.496 898.483 315.5L898.5 316.5L898.5 316.5L899.207 315.793ZM905.207 321.793L899.207 315.793L898.5 316.5L904.5 322.5L905.207 321.793ZM905.23 323.184C905.599 322.79 905.589 322.174 905.207 321.793L904.5 322.5L905.23 323.184ZM890.704 338.684L905.23 323.184L904.5 322.5L889.974 338L890.704 338.684ZM889.99 339C890.261 338.996 890.519 338.882 890.704 338.684L889.974 338V338L889.99 339ZM889.266 338.706C889.457 338.898 889.718 339.004 889.99 339L889.974 338H889.974L889.266 338.706ZM883.291 332.706L889.266 338.706L889.974 338L884 332L883.291 332.706ZM883.27 331.317C882.902 331.71 882.911 332.324 883.291 332.706L884 332H884L883.27 331.317ZM897.77 315.817L883.27 331.317L884 332L898.5 316.5L897.77 315.817ZM898.483 315.5C898.212 315.505 897.955 315.619 897.77 315.817L898.5 316.5L898.5 316.5L898.483 315.5ZM885.06 332.331L898.877 317.561L898.147 316.877L884.33 331.648L885.06 332.331ZM890.318 336.928L885.049 331.636L884.341 332.342L889.609 337.633L890.318 336.928ZM903.439 322.169L889.599 336.938L890.328 337.622L904.169 322.853L903.439 322.169ZM898.158 317.573L903.451 322.865L904.158 322.158L898.866 316.866L898.158 317.573ZM904.573 305.681C904.157 305.389 903.588 305.457 903.251 305.837L904 306.5L904.573 305.681ZM909.573 309.181L904.573 305.681L904 306.5L909 310L909.573 309.181ZM909.993 309.884C909.96 309.6 909.807 309.344 909.573 309.181L909 310L909.993 309.884ZM909.747 310.664C909.937 310.451 910.026 310.167 909.993 309.884L909 310L909.747 310.664ZM905.747 315.164L909.747 310.664L909 310L905 314.5L905.747 315.164ZM904.429 315.321C904.845 315.61 905.411 315.543 905.747 315.164L905 314.5L904.429 315.321ZM899.429 311.843L904.429 315.321L905 314.5L900 311.022L899.429 311.843ZM899.007 311.141C899.041 311.425 899.195 311.68 899.429 311.843L900 311.022L900 311.022L899.007 311.141ZM899.251 310.36C899.062 310.574 898.973 310.858 899.007 311.141L900 311.022L899.251 310.36ZM903.251 305.837L899.251 310.36L900 311.022L904 306.5L903.251 305.837ZM901.121 311.264L904.453 307.497L903.704 306.834L900.372 310.601L901.121 311.264ZM905.207 313.426L901.032 310.522L900.461 311.343L904.636 314.247L905.207 313.426ZM907.879 309.755L904.547 313.504L905.295 314.168L908.627 310.42L907.879 309.755ZM903.792 307.575L907.966 310.497L908.54 309.678L904.366 306.756L903.792 307.575Z" fill="white"/>
<path opacity="0.3" fill-rule="evenodd" clip-rule="evenodd" d="M728.5 186.5L724.5 191L728.5 194.5L732.5 190L728.5 186.5Z" stroke="white" stroke-linecap="round" stroke-linejoin="round"/>
<path opacity="0.3" fill-rule="evenodd" clip-rule="evenodd" d="M776 137L774.5 141L781.5 143.5L783 139.5L776 137Z" stroke="white" stroke-linecap="round" stroke-linejoin="round"/>
<path opacity="0.5" fill-rule="evenodd" clip-rule="evenodd" d="M995.5 424L996 435L1025.5 433L1025 422.5L995.5 424Z" stroke="white" stroke-linecap="round" stroke-linejoin="round"/>
<path fill-rule="evenodd" clip-rule="evenodd" d="M263 67H246V51H263V67Z" fill="#008432" fill-opacity="0.2" stroke="#04703D" stroke-width="2" stroke-linecap="round" stroke-linejoin="round"/>
<rect x="715" y="284" width="16" height="15" fill="#008432" fill-opacity="0.2" stroke="#04703D" stroke-width="2" stroke-linecap="round" stroke-linejoin="round"/>
<path d="M650.177 164.151L653.271 149.208L668.823 152.849L665.729 167.792L650.177 164.151Z" fill="#008432" fill-opacity="0.2" stroke="#04703D" stroke-width="2" stroke-linecap="round" stroke-linejoin="round"/>
<path d="M434.372 79.1018L441.56 66.3446L455.628 73.8982L448.44 86.6554L434.372 79.1018Z" fill="#008432" fill-opacity="0.2" stroke="#04703D" stroke-width="2" stroke-linecap="round" stroke-linejoin="round"/>
<path d="M257.556 274.497L257.613 274.994L257.556 274.497ZM257.997 273.944L258.494 273.887L257.997 273.944ZM235.556 276.997L235.5 276.5L235.556 276.997ZM235.003 276.556L234.506 276.613H234.506L235.003 276.556ZM235.444 276.003L235.387 275.506L235.444 276.003ZM257.444 273.503L257.387 273.006L257.387 273.006L257.444 273.503ZM257.048 289.998L257 289.5L257.048 289.998ZM257.498 289.452L257.995 289.404L257.995 289.404L257.498 289.452ZM231.048 292.498L231 292H231L231.048 292.498ZM230.502 292.048L231 292H231L230.502 292.048ZM230.952 291.502L231 292H231L230.952 291.502ZM256.952 289.002L257 289.5H257L256.952 289.002ZM257.613 274.994C258.162 274.931 258.556 274.436 258.494 273.887L257.5 274V274L257.613 274.994ZM235.613 277.494L257.613 274.994L257.5 274L235.5 276.5L235.613 277.494ZM234.506 276.613C234.569 277.162 235.064 277.556 235.613 277.494L235.5 276.5L234.506 276.613ZM235.387 275.506C234.838 275.569 234.444 276.064 234.506 276.613L235.5 276.5L235.387 275.506ZM257.387 273.006L235.387 275.506L235.5 276.5L257.5 274L257.387 273.006ZM258.494 273.887C258.431 273.338 257.936 272.944 257.387 273.006L257.5 274L257.5 274L258.494 273.887ZM257.096 290.495C257.645 290.443 258.048 289.954 257.995 289.404L257 289.5L257.096 290.495ZM231.096 292.995L257.096 290.495L257 289.5L231 292L231.096 292.995ZM230.005 292.096C230.057 292.645 230.546 293.048 231.096 292.995L231 292H231L230.005 292.096ZM230.904 291.005C230.355 291.057 229.952 291.546 230.005 292.096L231 292H231L230.904 291.005ZM256.904 288.505L230.904 291.005L231 292L257 289.5L256.904 288.505ZM257.995 289.404C257.943 288.855 257.454 288.452 256.904 288.505L257 289.5V289.5L257.995 289.404Z" fill="#FFCE1A"/>
<path fill-rule="evenodd" clip-rule="evenodd" d="M260 197H243V181H260V197Z" fill="#008432" fill-opacity="0.2" stroke="#04703D" stroke-width="2" stroke-linecap="round" stroke-linejoin="round"/>
<path d="M286 33.9808L286.499 33.9616V33.9616L286 33.9808ZM285.481 33.5004L285.462 33.0007L285.481 33.5004ZM286.5 46.9808L286 47L286.5 46.9808ZM286.019 47.4996L286.038 47.9993H286.038L286.019 47.4996ZM285.5 47.0192L285.001 47.0384L285.5 47.0192ZM285 34.0192L284.501 34.0384L285 34.0192ZM271.996 33.938L271.5 34L271.996 33.938ZM271.438 33.5039L271.5 34L271.5 34L271.438 33.5039ZM273.496 45.938L273 46L273.496 45.938ZM273.062 46.4961L273 46L273.062 46.4961ZM272.504 46.062L272.008 46.124L272.504 46.062ZM271.004 34.062L271.5 34L271.5 34L271.004 34.062ZM286.499 33.9616C286.478 33.4097 286.013 32.9795 285.462 33.0007L285.5 34V34L286.499 33.9616ZM286.999 46.9616L286.499 33.9616L285.5 34L286 47L286.999 46.9616ZM286.038 47.9993C286.59 47.978 287.02 47.5134 286.999 46.9616L286 47H286L286.038 47.9993ZM285.001 47.0384C285.022 47.5903 285.487 48.0205 286.038 47.9993L286 47H286L285.001 47.0384ZM284.501 34.0384L285.001 47.0384L286 47L285.5 34L284.501 34.0384ZM285.462 33.0007C284.91 33.022 284.48 33.4866 284.501 34.0384L285.5 34V34L285.462 33.0007ZM272.492 33.876C272.424 33.3279 271.924 32.9392 271.376 33.0077L271.5 34L271.5 34L272.492 33.876ZM273.992 45.876L272.492 33.876L271.5 34L273 46L273.992 45.876ZM273.124 46.9923C273.672 46.9238 274.061 46.424 273.992 45.876L273 46L273.124 46.9923ZM272.008 46.124C272.076 46.6721 272.576 47.0608 273.124 46.9923L273 46L272.008 46.124ZM270.508 34.124L272.008 46.124L273 46L271.5 34L270.508 34.124ZM271.376 33.0077C270.828 33.0762 270.439 33.576 270.508 34.124L271.5 34L271.5 34L271.376 33.0077Z" fill="#FFCE1A"/>
<rect x="885.02" y="541" width="17" height="17" transform="rotate(45 885.02 541)" fill="#008432" fill-opacity="0.2" stroke="#04703D" stroke-width="2" stroke-linecap="round" stroke-linejoin="round"/>
<rect x="897.02" y="553" width="17" height="17" transform="rotate(45 897.02 553)" fill="#008432" fill-opacity="0.2" stroke="#04703D" stroke-width="2" stroke-linecap="round" stroke-linejoin="round"/>
<path d="M231.639 2C231.639 2 218.261 148.516 218.261 158.258C218.261 168 231.467 186.093 238 204C244.533 221.907 251 234.5 249.5 247C248.34 256.664 236 278 230 281.5C224.18 284.895 209.5 293 209.5 293L189 307" stroke="white" stroke-linecap="round" stroke-linejoin="round"/>
<path opacity="0.5" d="M230 32.5L290.5 34L293 2" stroke="white" stroke-linecap="round" stroke-linejoin="round"/>
<path opacity="0.5" d="M221.637 325L233.999 310.5L230.538 292.5V282" stroke="white" stroke-linecap="round" stroke-linejoin="round"/>
<path fill-rule="evenodd" clip-rule="evenodd" d="M402 60.5L544.5 141L538 281.5L397 215L402 60.5Z" fill="white" fill-opacity="0.05" stroke="white" stroke-opacity="0.3" stroke-linecap="round" stroke-linejoin="round"/>
<path fill-rule="evenodd" clip-rule="evenodd" d="M544.5 141L714 180V283L538 281.5L544.5 141Z" fill="white" fill-opacity="0.05" stroke="white" stroke-opacity="0.3" stroke-linecap="round" stroke-linejoin="round"/>
<path fill-rule="evenodd" clip-rule="evenodd" d="M260 174.5L397 215L395.5 373.5L257 307.5L260 174.5Z" fill="white" fill-opacity="0.05" stroke="white" stroke-opacity="0.3" stroke-linecap="round" stroke-linejoin="round"/>
<path fill-rule="evenodd" clip-rule="evenodd" d="M397 215L538 281.5L540 444L395.5 373.5L397 215Z" fill="white" fill-opacity="0.05" stroke="white" stroke-opacity="0.3" stroke-linecap="round" stroke-linejoin="round"/>
<path fill-rule="evenodd" clip-rule="evenodd" d="M538 281.5L714 283V401L540 444L538 281.5Z" fill="white" fill-opacity="0.05" stroke="white" stroke-opacity="0.3" stroke-linecap="round" stroke-linejoin="round"/>
<path fill-rule="evenodd" clip-rule="evenodd" d="M263 45L402 60.5L397 215L260 174.5L263 45Z" fill="white" fill-opacity="0.05" stroke="white" stroke-opacity="0.3" stroke-linecap="round" stroke-linejoin="round"/>
<path opacity="0.495526" fill-rule="evenodd" clip-rule="evenodd" d="M262.949 47.1834C262.977 46.0099 264.004 45.1119 265.171 45.242L401.594 60.4547C401.862 60.4846 402.121 60.5684 402.356 60.701L544.247 140.857C544.415 140.952 544.595 141.022 544.783 141.065L712.448 179.643C713.357 179.852 714 180.66 714 181.592V399.434C714 400.354 713.373 401.155 712.48 401.376L540.705 443.826C540.249 443.938 539.769 443.887 539.348 443.682L395.5 373.5L258.168 308.057C257.457 307.718 257.011 306.993 257.029 306.206L260 174.5L262.949 47.1834Z" stroke="white" stroke-width="2" stroke-linecap="round" stroke-linejoin="round"/>
<path d="M438.354 419.077L445.091 406.325L459.647 413.451L452.908 426.648L438.354 419.077Z" fill="#008432" fill-opacity="0.2" stroke="#04703D" stroke-width="2" stroke-linecap="round" stroke-linejoin="round"/>
<path d="M935.866 209L922 280L830 397L831.5 406L892.5 432L908.5 445.5L915 448L974 440" stroke="white" stroke-linecap="round" stroke-linejoin="round"/>
<path fill-rule="evenodd" clip-rule="evenodd" d="M802.655 388H797L794.5 391.5L798.582 406V415.5L801.5 421.5L821.5 407L802.655 388Z" fill="#188954" stroke="#04703D" stroke-width="2" stroke-linecap="round" stroke-linejoin="round"/>
<path fill-rule="evenodd" clip-rule="evenodd" d="M821.5 407L841 426L816 436H810L801.5 421.5L821.5 407Z" fill="#188954" stroke="#04703D" stroke-width="2" stroke-linecap="round" stroke-linejoin="round"/>
<path fill-rule="evenodd" clip-rule="evenodd" d="M797 379H803V388H797V379Z" fill="#1A8A55" stroke="#04703D" stroke-width="2" stroke-linecap="round" stroke-linejoin="round"/>
<path fill-rule="evenodd" clip-rule="evenodd" d="M802.998 388L814.498 400L889.498 308L851.498 269.5L802.973 330L802.998 388Z" fill="#008432" fill-opacity="0.2" stroke="#04703D" stroke-width="2" stroke-linecap="round" stroke-linejoin="round"/>
<path d="M827.5 300.5L865.5 337.5" stroke="#04703D" stroke-width="2" stroke-linecap="round" stroke-linejoin="round"/>
<path d="M803 332L840.5 368.5" stroke="#04703D" stroke-width="2" stroke-linecap="round" stroke-linejoin="round"/>
<path d="M870.5 288.5L821.25 349.5L805 390.5" stroke="#04703D" stroke-width="2" stroke-linecap="round" stroke-linejoin="round"/>
<path d="M375.5 365.5L373 370.5L540.5 452.5L641.5 426V503.5L581.5 551L607 582L612 577.993" stroke="#FFCE1A" stroke-width="1.6" stroke-dasharray="5 3"/>
</svg>
