<svg xmlns="http://www.w3.org/2000/svg" xmlns:xlink="http://www.w3.org/1999/xlink">
  <symbol id="ico-check" xmlns="http://www.w3.org/2000/svg" width="14" height="11" viewBox="0 0 14 11">
    <path d="M5.25 10.5C4.8125 10.5 4.375 10.325 4.025 9.975L0.525 6.475C-0.175 5.775 -0.175 4.725 0.525 4.025C1.225 3.325 2.3625 3.325 2.975 4.025L5.25 6.3L11.025 0.525C11.725 -0.175 12.775 -0.175 13.475 0.525C14.175 1.225 14.175 2.275 13.475 2.975L6.475 9.975C6.125 10.325 5.6875 10.5 5.25 10.5Z" fill="white" />
  </symbol>
  <symbol id="ico-video_play" xmlns="http://www.w3.org/2000/svg" width="17" height="20" viewBox="0 0 17 20">
    <path fill-rule="evenodd" clip-rule="evenodd" d="M3.79054 0.936756L15.1171 7.89919C15.7967 8.36335 16.2497 9.0596 16.2497 9.98792C16.2497 10.9162 15.7967 11.6125 15.1171 12.0767L3.79054 19.0391C3.56401 19.2712 3.11095 19.2712 2.65788 19.2712C2.20482 19.2712 1.97829 19.2712 1.52523 19.0391C0.845639 18.5749 0.392578 17.8787 0.392578 16.9504V3.02549C0.392578 2.09716 0.845639 1.40092 1.52523 0.936756C2.20482 0.704675 3.11095 0.704675 3.79054 0.936756Z" fill="#493D0F" />
  </symbol>
  <symbol id="ico-strucrure_arrow" xmlns="http://www.w3.org/2000/svg" width="6" height="62" viewBox="0 0 6 62">
    <path d="M3 61.0646L5.88675 56.0646H0.113249L3 61.0646ZM3.5 0.741212C3.5 0.46507 3.27614 0.241212 3 0.241212C2.72386 0.241212 2.5 0.46507 2.5 0.741212H3.5ZM2.5 1.7466C2.5 2.02274 2.72386 2.2466 3 2.2466C3.27614 2.2466 3.5 2.02274 3.5 1.7466H2.5ZM3.5 3.75738C3.5 3.48124 3.27614 3.25738 3 3.25738C2.72386 3.25738 2.5 3.48124 2.5 3.75738H3.5ZM2.5 5.76816C2.5 6.0443 2.72386 6.26816 3 6.26816C3.27614 6.26816 3.5 6.0443 3.5 5.76816H2.5ZM3.5 7.77894C3.5 7.50279 3.27614 7.27894 3 7.27894C2.72386 7.27894 2.5 7.50279 2.5 7.77894H3.5ZM2.5 9.78971C2.5 10.0659 2.72386 10.2897 3 10.2897C3.27614 10.2897 3.5 10.0659 3.5 9.78971H2.5ZM3.5 11.8005C3.5 11.5243 3.27614 11.3005 3 11.3005C2.72386 11.3005 2.5 11.5243 2.5 11.8005H3.5ZM2.5 13.8113C2.5 14.0874 2.72386 14.3113 3 14.3113C3.27614 14.3113 3.5 14.0874 3.5 13.8113H2.5ZM3.5 15.822C3.5 15.5459 3.27614 15.322 3 15.322C2.72386 15.322 2.5 15.5459 2.5 15.822H3.5ZM2.5 17.8328C2.5 18.109 2.72386 18.3328 3 18.3328C3.27614 18.3328 3.5 18.109 3.5 17.8328H2.5ZM3.5 19.8436C3.5 19.5675 3.27614 19.3436 3 19.3436C2.72386 19.3436 2.5 19.5675 2.5 19.8436H3.5ZM2.5 21.8544C2.5 22.1305 2.72386 22.3544 3 22.3544C3.27614 22.3544 3.5 22.1305 3.5 21.8544H2.5ZM3.5 23.8652C3.5 23.589 3.27614 23.3652 3 23.3652C2.72386 23.3652 2.5 23.589 2.5 23.8652H3.5ZM2.5 25.8759C2.5 26.1521 2.72386 26.3759 3 26.3759C3.27614 26.3759 3.5 26.1521 3.5 25.8759H2.5ZM3.5 27.8867C3.5 27.6106 3.27614 27.3867 3 27.3867C2.72386 27.3867 2.5 27.6106 2.5 27.8867H3.5ZM2.5 29.8975C2.5 30.1736 2.72386 30.3975 3 30.3975C3.27614 30.3975 3.5 30.1736 3.5 29.8975H2.5ZM3.5 31.9083C3.5 31.6321 3.27614 31.4083 3 31.4083C2.72386 31.4083 2.5 31.6321 2.5 31.9083H3.5ZM2.5 33.9191C2.5 34.1952 2.72386 34.4191 3 34.4191C3.27614 34.4191 3.5 34.1952 3.5 33.9191H2.5ZM3.5 35.9298C3.5 35.6537 3.27614 35.4298 3 35.4298C2.72386 35.4298 2.5 35.6537 2.5 35.9298H3.5ZM2.5 37.9406C2.5 38.2167 2.72386 38.4406 3 38.4406C3.27614 38.4406 3.5 38.2167 3.5 37.9406H2.5ZM3.5 39.9514C3.5 39.6752 3.27614 39.4514 3 39.4514C2.72386 39.4514 2.5 39.6752 2.5 39.9514H3.5ZM2.5 41.9622C2.5 42.2383 2.72386 42.4622 3 42.4622C3.27614 42.4622 3.5 42.2383 3.5 41.9622H2.5ZM3.5 43.9729C3.5 43.6968 3.27614 43.4729 3 43.4729C2.72386 43.4729 2.5 43.6968 2.5 43.9729H3.5ZM2.5 45.9837C2.5 46.2599 2.72386 46.4837 3 46.4837C3.27614 46.4837 3.5 46.2599 3.5 45.9837H2.5ZM3.5 47.9945C3.5 47.7183 3.27614 47.4945 3 47.4945C2.72386 47.4945 2.5 47.7183 2.5 47.9945H3.5ZM2.5 50.0053C2.5 50.2814 2.72386 50.5053 3 50.5053C3.27614 50.5053 3.5 50.2814 3.5 50.0053H2.5ZM3.5 52.016C3.5 51.7399 3.27614 51.516 3 51.516C2.72386 51.516 2.5 51.7399 2.5 52.016H3.5ZM2.5 54.0268C2.5 54.303 2.72386 54.5268 3 54.5268C3.27614 54.5268 3.5 54.303 3.5 54.0268H2.5ZM3.5 56.0376C3.5 55.7615 3.27614 55.5376 3 55.5376C2.72386 55.5376 2.5 55.7615 2.5 56.0376H3.5ZM2.5 58.0484C2.5 58.3245 2.72386 58.5484 3 58.5484C3.27614 58.5484 3.5 58.3245 3.5 58.0484H2.5ZM3.5 60.0591C3.5 59.783 3.27614 59.5591 3 59.5591C2.72386 59.5591 2.5 59.783 2.5 60.0591H3.5ZM2.5 0.741212V1.7466H3.5V0.741212H2.5ZM2.5 3.75738V5.76816H3.5V3.75738H2.5ZM2.5 7.77894V9.78971H3.5V7.77894H2.5ZM2.5 11.8005V13.8113H3.5V11.8005H2.5ZM2.5 15.822V17.8328H3.5V15.822H2.5ZM2.5 19.8436V21.8544H3.5V19.8436H2.5ZM2.5 23.8652V25.8759H3.5V23.8652H2.5ZM2.5 27.8867V29.8975H3.5V27.8867H2.5ZM2.5 31.9083V33.9191H3.5V31.9083H2.5ZM2.5 35.9298V37.9406H3.5V35.9298H2.5ZM2.5 39.9514V41.9622H3.5V39.9514H2.5ZM2.5 43.9729V45.9837H3.5V43.9729H2.5ZM2.5 47.9945V50.0053H3.5V47.9945H2.5ZM2.5 52.016V54.0268H3.5V52.016H2.5ZM2.5 56.0376V58.0484H3.5V56.0376H2.5Z" fill="#AAC4B8" />
  </symbol>
  <symbol id="ico-aviary" xmlns="http://www.w3.org/2000/svg" width="77" height="77" viewBox="0 0 77 77" fill="none">
    <path opacity="0.1" fill-rule="evenodd" clip-rule="evenodd" d="M38.5 77C66.7656 77 77 59.882 77 38.7658C77 17.6497 62.2765 4.72189 38.5 0.531661C14.7235 -3.65857 0 17.6497 0 38.7658C0 59.882 10.2344 77 38.5 77Z" fill="#0F8646" />
    <path fill-rule="evenodd" clip-rule="evenodd" d="M39 69C61.0251 69 69 55.6613 69 39.2071C69 22.753 57.5271 12.6794 39 9.41428C20.4729 6.14916 9 22.753 9 39.2071C9 55.6613 16.9749 69 39 69Z" fill="#0F8646" />
    <path d="M35.7373 46.4163L30.1527 40.8317C29.4257 40.1047 29.4257 38.9261 30.1527 38.1991C30.8796 37.4721 32.0583 37.4721 32.7853 38.1991L37.0536 42.4936L45.9757 33.5452C46.7027 32.8183 47.8814 32.8183 48.6083 33.5452C49.3353 34.2722 49.3353 35.4509 48.6083 36.1778L38.3699 46.4163C37.6429 47.1433 36.4642 47.1433 35.7373 46.4163Z" fill="#F5F6F6" />
  </symbol>
  <symbol id="ico-timeline" width="77" height="77" viewBox="0 0 77 77" fill="none" xmlns="http://www.w3.org/2000/svg">
    <path fill-rule="evenodd" clip-rule="evenodd" d="M39 68.9995C61.0251 68.9995 69 55.6608 69 39.2067C69 22.7525 57.5271 12.6789 39 9.41379C20.4729 6.14868 9 22.7525 9 39.2067C9 55.6608 16.9749 68.9995 39 68.9995Z" fill="#008432" />
    <path opacity="0.1" fill-rule="evenodd" clip-rule="evenodd" d="M38.5 76.9995C66.7656 76.9995 77 59.8815 77 38.7653C77 17.6492 62.2765 4.72141 38.5 0.531173C14.7235 -3.65906 0 17.6492 0 38.7653C0 59.8815 10.2344 76.9995 38.5 76.9995Z" fill="#3BBD6C" />
  </symbol>
</svg>